<svg width="300" height="300" viewBox="0 0 300 300" fill="none" xmlns="http://www.w3.org/2000/svg">
<path d="M79.8372 41.8242L87.2772 34.8282L102.805 48.2868L95.5452 53.9232L107.488 58.578L87.1068 55.7496L94.6836 48.7116L79.8372 41.8242Z" fill="#EBEBEB"/>
<path d="M75.9126 84.6864L78.5586 78.8034L90.36 83.4144L87.4752 88.3818L95.7612 89.2542L82.9212 91.0872L85.638 85.152L75.9126 84.6864Z" fill="#EBEBEB"/>
<path d="M120.529 31.0842L124.502 30.3168L126.398 38.0364L122.808 38.3502L125.353 42.9168L119.776 36.9912L123.802 36.2418L120.529 31.0842Z" fill="#EBEBEB"/>
<path d="M184.823 36.8472L187.927 39.444L183.139 45.789L180.629 43.2036L178.696 48.0606L179.767 39.9942L182.891 42.642L184.823 36.8472Z" fill="#EBEBEB"/>
<path d="M157.901 21.5682L162.601 23.1786L159.904 32.5554L155.89 30.6966L155.81 37.1124L153.491 27.3966L158.236 29.058L157.901 21.5682Z" fill="#E0E0E0"/>
<path d="M212.264 100.542L212.113 104.452L204.429 104.539L204.923 101.09L200.066 102.482L206.87 98.535L206.69 102.489L212.264 100.542Z" fill="#EBEBEB"/>
<path d="M259.634 125.729C259.631 125.725 259.627 125.673 259.624 125.574C259.622 125.46 259.618 125.316 259.614 125.136C259.608 124.735 259.6 124.175 259.59 123.457C259.577 121.984 259.559 119.867 259.535 117.197L259.634 117.298C252.318 117.312 240.683 117.335 227.594 117.362C227.666 117.289 227.429 117.526 227.756 117.198V117.2V117.205V117.213V117.23V117.265V117.333V117.47V117.745V118.292C227.756 118.656 227.756 119.019 227.756 119.38C227.756 120.103 227.755 120.821 227.755 121.533C227.754 122.957 227.753 124.357 227.752 125.729L227.593 125.569C236.717 125.598 244.7 125.623 250.426 125.642C253.279 125.662 255.567 125.677 257.166 125.688C257.944 125.697 258.553 125.704 258.988 125.709C259.184 125.713 259.342 125.717 259.465 125.719C259.574 125.722 259.631 125.725 259.634 125.729C259.637 125.732 259.587 125.736 259.486 125.739C259.367 125.741 259.217 125.745 259.028 125.749C258.601 125.754 258.004 125.761 257.24 125.77C255.65 125.781 253.375 125.797 250.538 125.816C244.784 125.834 236.761 125.86 227.593 125.889L227.434 125.89V125.728C227.433 124.357 227.432 122.956 227.431 121.532C227.431 120.82 227.43 120.102 227.43 119.379C227.43 119.018 227.43 118.655 227.43 118.291V117.743V117.469V117.332V117.263V117.229V117.212V117.203V117.199V117.197C227.756 116.868 227.522 117.106 227.595 117.032C240.683 117.059 252.319 117.082 259.634 117.097H259.735L259.734 117.197C259.711 119.892 259.692 122.029 259.679 123.516C259.669 124.224 259.66 124.777 259.655 125.173C259.651 125.345 259.647 125.483 259.645 125.593C259.64 125.686 259.637 125.732 259.634 125.729Z" fill="#E0E0E0"/>
<path d="M263.978 117.197C263.974 117.193 263.97 117.139 263.966 117.035C263.962 116.912 263.959 116.764 263.953 116.582C263.946 116.162 263.936 115.592 263.924 114.872C263.909 113.376 263.887 111.263 263.861 108.665L263.978 108.784C258.991 108.796 252.206 108.812 244.728 108.83C244.582 108.977 244.925 108.629 244.89 108.666V108.668V108.673V108.682V108.699V108.734V108.804V108.944V109.224V109.782C244.89 110.153 244.89 110.522 244.889 110.888C244.889 111.622 244.888 112.346 244.888 113.06C244.886 114.487 244.883 115.871 244.882 117.196L244.726 117.04C250.283 117.07 255.068 117.096 258.497 117.115C260.189 117.133 261.544 117.148 262.509 117.158C262.96 117.166 263.318 117.172 263.591 117.178C263.84 117.184 263.972 117.191 263.978 117.197C263.984 117.204 263.865 117.21 263.629 117.217C263.365 117.221 263.016 117.228 262.579 117.236C261.623 117.247 260.279 117.262 258.603 117.28C255.148 117.298 250.327 117.324 244.727 117.354L244.571 117.355L244.571 117.197C244.569 115.872 244.567 114.488 244.565 113.061C244.564 112.348 244.564 111.623 244.563 110.89C244.563 110.523 244.563 110.154 244.562 109.783V109.225V108.946V108.805V108.735V108.7V108.683V108.674V108.669V108.667C244.526 108.702 244.872 108.355 244.727 108.502C252.205 108.52 258.99 108.536 263.977 108.548H264.095L264.094 108.667C264.068 111.295 264.046 113.431 264.031 114.945C264.019 115.654 264.009 116.216 264.002 116.629C263.995 117.01 263.987 117.205 263.978 117.197Z" fill="#E0E0E0"/>
<path d="M113.909 138.152H84.3648V145.706H113.909V138.152Z" fill="#EBEBEB"/>
<path d="M101.416 153.663C101.413 153.66 101.41 153.614 101.407 153.526C101.405 153.425 101.402 153.297 101.398 153.138C101.392 152.783 101.385 152.287 101.375 151.651C101.363 150.347 101.347 148.472 101.325 146.108L101.416 146.197C94.6704 146.21 83.9418 146.23 71.8734 146.254C71.94 146.189 71.7216 146.399 72.0222 146.108V146.11V146.114V146.122V146.137V146.167V146.228V146.35V146.593V147.077C72.0222 147.399 72.0222 147.721 72.0222 148.04C72.0222 148.681 72.0222 149.316 72.0216 149.947C72.021 151.208 72.0198 152.447 72.0192 153.662L71.8722 153.52C80.2854 153.546 87.6468 153.569 92.9268 153.585C95.5566 153.602 97.6674 153.616 99.1416 153.626C99.8586 153.634 100.42 153.64 100.822 153.644C101.003 153.648 101.148 153.651 101.262 153.653C101.36 153.657 101.413 153.659 101.416 153.663C101.419 153.666 101.373 153.669 101.279 153.672C101.17 153.674 101.032 153.677 100.858 153.681C100.464 153.686 99.9132 153.692 99.2094 153.7C97.7436 153.709 95.6442 153.723 93.0288 153.74C87.723 153.757 80.3256 153.779 71.8716 153.805L71.7246 153.806V153.663C71.724 152.448 71.7228 151.208 71.7222 149.947C71.7222 149.317 71.7216 148.681 71.7216 148.041C71.7216 147.721 71.7216 147.4 71.7216 147.077V146.593V146.35V146.229V146.168V146.137V146.122V146.114V146.111V146.109C72.0228 145.818 71.8062 146.028 71.874 145.963C83.9424 145.987 94.671 146.007 101.417 146.02H101.509L101.509 146.108C101.487 148.495 101.47 150.388 101.458 151.704C101.449 152.331 101.441 152.82 101.436 153.171C101.432 153.323 101.429 153.446 101.426 153.543C101.422 153.625 101.42 153.665 101.416 153.663Z" fill="#E0E0E0"/>
<path d="M266.857 231.178H237.313V238.732H266.857V231.178Z" fill="#EBEBEB"/>
<path d="M254.365 246.689C254.362 246.686 254.359 246.64 254.356 246.551C254.353 246.451 254.35 246.323 254.346 246.164C254.341 245.808 254.333 245.312 254.324 244.677C254.312 243.373 254.295 241.498 254.273 239.134L254.365 239.222C247.619 239.236 236.89 239.256 224.822 239.279C224.888 239.215 224.67 239.425 224.971 239.134V239.136V239.14V239.147V239.162V239.193V239.254V239.375V239.618V240.103C224.971 240.425 224.971 240.746 224.971 241.066C224.971 241.706 224.971 242.342 224.97 242.972C224.969 244.234 224.968 245.473 224.968 246.688L224.821 246.546C233.234 246.572 240.595 246.595 245.875 246.611C248.505 246.628 250.616 246.642 252.09 246.652C252.807 246.659 253.369 246.666 253.771 246.67C253.952 246.674 254.096 246.677 254.21 246.679C254.309 246.683 254.361 246.686 254.365 246.689C254.368 246.692 254.321 246.695 254.228 246.698C254.119 246.7 253.98 246.703 253.806 246.707C253.412 246.711 252.861 246.718 252.157 246.725C250.691 246.735 248.592 246.749 245.977 246.766C240.671 246.782 233.273 246.805 224.819 246.831L224.672 246.832V246.689C224.672 245.474 224.671 244.234 224.67 242.973C224.67 242.342 224.669 241.707 224.669 241.067C224.669 240.746 224.669 240.425 224.669 240.103V239.619V239.376V239.255V239.194V239.163V239.148V239.14V239.137V239.135C224.971 238.844 224.754 239.054 224.822 238.989C236.89 239.012 247.619 239.033 254.365 239.046H254.457L254.456 239.134C254.435 241.52 254.418 243.413 254.406 244.73C254.396 245.357 254.389 245.846 254.384 246.197C254.38 246.349 254.377 246.472 254.374 246.569C254.371 246.652 254.368 246.692 254.365 246.689Z" fill="#E0E0E0"/>
<path d="M71.4114 247.534H41.8668V255.088H71.4114V247.534Z" fill="#EBEBEB"/>
<path d="M265.968 37.53H236.423V45.084H265.968V37.53Z" fill="#EBEBEB"/>
<path d="M68.4624 51.057H38.9178V58.6116H68.4624V51.057Z" fill="#EBEBEB"/>
<path d="M55.9698 66.5682C55.9668 66.5652 55.9638 66.519 55.9608 66.4308C55.9584 66.33 55.9554 66.2022 55.9512 66.0432C55.9458 65.6874 55.9386 65.1918 55.929 64.5564C55.917 63.252 55.8996 61.3776 55.8786 59.0136L55.9698 59.1018C49.224 59.115 38.4954 59.1354 26.427 59.1588C26.4936 59.094 26.2752 59.304 26.5758 59.0136V59.0154V59.019V59.0268V59.0418V59.0724V59.1336V59.2548V59.4978V59.982C26.5758 60.3042 26.5758 60.6258 26.5758 60.9456C26.5758 61.5858 26.5758 62.2218 26.5752 62.8518C26.5746 64.113 26.5734 65.3526 26.5728 66.5676L26.4258 66.4254C34.839 66.4512 42.2004 66.474 47.4804 66.4902C50.1102 66.5076 52.221 66.5214 53.6952 66.531C54.4122 66.5388 54.9738 66.5454 55.3758 66.5496C55.5564 66.5532 55.7016 66.5562 55.8156 66.5586C55.914 66.5622 55.9668 66.5652 55.9698 66.5682C55.9728 66.5712 55.9266 66.5742 55.833 66.5772C55.7238 66.5796 55.5852 66.5826 55.4118 66.5862C55.0176 66.5904 54.4662 66.597 53.763 66.6048C52.2966 66.6144 50.1978 66.6282 47.5824 66.6456C42.2766 66.6618 34.8792 66.6846 26.4252 66.7104L26.2782 66.711V66.5682C26.2776 65.3532 26.2764 64.1136 26.2758 62.8524C26.2758 62.2218 26.2752 61.5864 26.2752 60.9462C26.2752 60.6258 26.2752 60.3048 26.2752 59.9826V59.4984V59.2554V59.1342V59.073V59.0424V59.0274V59.0196V59.016V59.0142C26.5764 58.7232 26.3598 58.9332 26.4276 58.8684C38.496 58.8918 49.2246 58.9122 55.9704 58.9254H56.0628L56.0622 59.0136C56.0406 61.3998 56.0238 63.2928 56.0118 64.6092C56.0022 65.2362 55.995 65.7252 55.9896 66.0762C55.986 66.2286 55.9824 66.351 55.98 66.4482C55.9758 66.5304 55.9728 66.5712 55.9698 66.5682Z" fill="#E0E0E0"/>
<path d="M65.1636 122.653C65.1606 122.65 65.157 122.6 65.154 122.504C65.1516 122.393 65.148 122.255 65.1438 122.081C65.1384 121.694 65.1306 121.154 65.1204 120.461C65.1078 119.041 65.0898 116.998 65.0676 114.422L65.1636 114.518C58.1052 114.533 46.8798 114.555 34.2516 114.58C34.3212 114.509 34.0926 114.739 34.4076 114.422V114.424V114.428V114.436V114.453V114.486V114.552V114.685V114.949V115.477C34.4076 115.828 34.4076 116.179 34.4076 116.527C34.407 117.225 34.407 117.917 34.407 118.604C34.4064 119.978 34.4052 121.33 34.4046 122.653L34.2504 122.498C43.0536 122.527 50.7558 122.551 56.2806 122.569C59.0328 122.587 61.2408 122.602 62.7834 122.613C63.5334 122.621 64.1214 122.629 64.542 122.633C64.731 122.638 64.8828 122.641 65.0022 122.643C65.1054 122.647 65.16 122.65 65.1636 122.653C65.1672 122.656 65.1186 122.66 65.0202 122.663C64.9062 122.666 64.7604 122.669 64.5792 122.673C64.1664 122.678 63.5904 122.684 62.8542 122.693C61.3206 122.704 59.124 122.719 56.3874 122.738C50.8356 122.755 43.0956 122.78 34.2498 122.809L34.0956 122.809V122.653C34.095 121.33 34.0938 119.978 34.0932 118.604C34.0932 117.917 34.0926 117.225 34.0926 116.527C34.0926 116.179 34.0926 115.828 34.0926 115.477V114.949V114.685V114.552V114.486V114.453V114.436V114.428V114.424V114.422C34.4076 114.104 34.1808 114.334 34.2516 114.263C46.8792 114.288 58.1052 114.311 65.1636 114.325H65.2602L65.2596 114.422C65.2368 117.022 65.2188 119.084 65.2068 120.519C65.1966 121.202 65.1894 121.735 65.1834 122.117C65.1792 122.284 65.1762 122.417 65.1732 122.522C65.1696 122.612 65.1666 122.657 65.1636 122.653Z" fill="#E0E0E0"/>
<path d="M145.726 22.6914C145.723 22.6878 145.719 22.638 145.716 22.542C145.714 22.4316 145.71 22.293 145.706 22.1196C145.7 21.7326 145.693 21.192 145.682 20.4996C145.67 19.0788 145.652 17.0358 145.63 14.46L145.726 14.5566C138.667 14.571 127.442 14.5932 114.814 14.6184C114.883 14.5476 114.655 14.7768 114.97 14.46V14.4618V14.466V14.4744V14.4912V14.5242V14.5902V14.7228V14.9874V15.5148C114.97 15.8658 114.97 16.2162 114.97 16.5648C114.97 17.2626 114.969 17.955 114.969 18.642C114.968 20.016 114.967 21.3672 114.967 22.6908L114.812 22.536C123.616 22.5642 131.318 22.5888 136.843 22.6062C139.594 22.6248 141.803 22.6398 143.345 22.6506C144.095 22.659 144.683 22.6662 145.103 22.671C145.292 22.6752 145.444 22.6782 145.564 22.6806C145.667 22.6848 145.722 22.6884 145.726 22.6914C145.729 22.695 145.681 22.698 145.583 22.7016C145.469 22.704 145.324 22.7076 145.142 22.7118C144.729 22.7166 144.153 22.7232 143.417 22.7322C141.883 22.7424 139.687 22.7574 136.95 22.776C131.398 22.7934 123.658 22.8186 114.812 22.8468L114.658 22.8474V22.6914C114.658 21.3678 114.656 20.0166 114.655 18.6426C114.655 17.9556 114.655 17.2632 114.655 16.5654C114.655 16.2168 114.655 15.8664 114.655 15.5154V14.988V14.7234V14.5908V14.5248V14.4918V14.475V14.4666V14.4624V14.4606C114.97 14.1432 114.743 14.3724 114.814 14.3016C127.442 14.3268 138.668 14.3496 145.726 14.364H145.823L145.822 14.4606C145.799 17.061 145.782 19.1232 145.769 20.5578C145.759 21.2412 145.752 21.774 145.746 22.1562C145.742 22.3224 145.739 22.4556 145.736 22.5612C145.732 22.6506 145.729 22.695 145.726 22.6914Z" fill="#E0E0E0"/>
<path d="M235.594 167.861C235.591 167.858 235.588 167.808 235.584 167.712C235.582 167.602 235.578 167.463 235.574 167.29C235.568 166.903 235.561 166.362 235.55 165.67C235.538 164.249 235.52 162.206 235.498 159.63L235.593 159.727C228.535 159.741 217.309 159.763 204.681 159.788C204.751 159.718 204.522 159.947 204.836 159.63V159.632V159.637V159.645V159.662V159.695V159.761V159.893V160.158V160.686C204.836 161.037 204.836 161.387 204.836 161.736C204.836 162.434 204.836 163.126 204.836 163.813C204.835 165.187 204.834 166.538 204.833 167.862L204.679 167.707C213.482 167.735 221.185 167.76 226.709 167.777C229.461 167.796 231.67 167.811 233.212 167.822C233.962 167.83 234.55 167.837 234.971 167.842C235.16 167.846 235.312 167.849 235.431 167.852C235.535 167.855 235.59 167.858 235.594 167.861C235.597 167.865 235.549 167.868 235.451 167.872C235.337 167.874 235.192 167.878 235.01 167.881C234.597 167.886 234.021 167.893 233.285 167.902C231.751 167.912 229.555 167.927 226.818 167.946C221.266 167.963 213.526 167.989 204.68 168.017L204.526 168.017V167.861C204.525 166.538 204.524 165.187 204.523 163.813C204.523 163.126 204.523 162.433 204.523 161.735C204.523 161.387 204.523 161.036 204.523 160.685V160.157V159.893V159.76V159.694V159.661V159.644V159.636V159.632V159.629C204.838 159.312 204.611 159.541 204.682 159.47C217.31 159.496 228.536 159.518 235.594 159.532H235.691L235.69 159.629C235.667 162.229 235.649 164.291 235.637 165.726C235.627 166.409 235.619 166.942 235.614 167.324C235.61 167.491 235.607 167.624 235.604 167.73C235.6 167.821 235.597 167.864 235.594 167.861Z" fill="#E0E0E0"/>
<path d="M282.065 290.387C282.065 290.474 223.497 290.543 151.265 290.543C79.0092 290.543 20.4528 290.473 20.4528 290.387C20.4528 290.301 79.0086 290.231 151.265 290.231C223.497 290.231 282.065 290.302 282.065 290.387Z" fill="#263238"/>
<path d="M99.8856 71.1504L99.9121 71.2068L99.8916 71.274L99.891 71.2746C99.867 71.3412 99.8406 71.3844 99.7308 71.3844C99.5976 71.3844 99.3409 71.3202 98.8129 71.1564C98.2489 70.9812 97.5079 70.7268 96.7261 70.4406C93.6661 69.3192 93.7195 69.1728 93.7711 69.0318C93.8251 68.883 93.8893 68.8518 94.8493 69.1494C95.4133 69.3246 96.1549 69.5784 96.9367 69.8652C97.9957 70.2528 99.7866 70.9356 99.8856 71.1504ZM116.29 49.3116C115.814 48.9126 115.162 48.3666 114.475 47.7366C113.785 47.1096 113.18 46.5108 112.739 46.0734C111.934 45.2754 111.887 45.228 111.749 45.3438L111.691 45.3942L111.689 45.4638C111.68 45.7044 112.829 47.07 114.061 48.189C115.271 49.2966 116.711 50.3022 116.982 50.3022C116.986 50.3022 116.99 50.3016 116.993 50.3016L117.07 50.289L117.106 50.2326C117.211 50.0838 117.155 50.037 116.29 49.3116ZM141.287 38.6052C141.226 37.8312 141.176 37.1064 141.134 36.4866C140.987 34.3356 140.995 34.3404 140.786 34.3362H140.785C140.633 34.338 140.563 34.3392 140.558 35.7042C140.556 36.2088 140.568 37.263 140.677 38.6538C140.786 40.0464 140.936 41.0886 141.017 41.5866C141.208 42.7728 141.284 42.9072 141.403 42.9072C141.419 42.9072 141.436 42.9048 141.454 42.9024C141.649 42.8742 141.653 42.8736 141.465 40.7268C141.41 40.1064 141.347 39.381 141.287 38.6052ZM167.486 39.4896L167.431 39.4614C167.299 39.3906 167.158 39.321 165.616 42.3132C164.073 45.3054 164.211 45.3768 164.345 45.4464C164.365 45.4566 164.385 45.4674 164.41 45.4674C164.552 45.4674 164.849 45.1356 166.16 42.594C166.696 41.556 167.582 39.7806 167.51 39.5556L167.486 39.4896ZM187.193 54.462L187.207 54.3924L187.136 54.2808L187.076 54.2652C186.833 54.2088 185.296 55.1016 184.392 55.6386C183.52 56.1576 182.716 56.6688 182.29 56.9766L182.155 57.0408L182.169 57.0648L182.168 57.0654L182.401 57.4602L182.524 57.3738C182.994 57.1488 183.828 56.6868 184.706 56.1648C185.61 55.6272 187.135 54.6906 187.193 54.462ZM192.47 80.2302L192.427 80.1852C192.265 80.0148 190.467 79.9524 189.41 79.9308C188.629 79.9146 187.891 79.9152 187.336 79.9338C186.436 79.9632 186.337 80.0082 186.334 80.1732C186.331 80.3238 186.327 80.4792 189.398 80.5428C189.766 80.5506 190.123 80.5542 190.457 80.5542C190.833 80.5542 191.177 80.5494 191.471 80.5398C192.371 80.5104 192.47 80.4654 192.473 80.2998L192.47 80.2302Z" fill="#263238"/>
<path d="M225.252 43.2114L213.448 31.7982L213.07 46.7622L197.037 46.281L209.639 58.6566L197.242 68.6952L213.353 70.8642L209.161 89.9106L226.115 77.4468L239.256 85.5084L238.297 69.7536L251.593 68.9802L242.969 59.1348L252.269 45.492L237.434 46.3764L237.384 32.2968L225.252 43.2114Z" fill="white"/>
<path d="M225.252 43.2114C225.252 43.2114 225.524 42.9534 226.052 42.4704C226.585 41.9856 227.368 41.2728 228.392 40.341C230.447 38.4792 233.464 35.7462 237.334 32.2404L237.459 32.1264L237.46 32.2962C237.481 36.2742 237.506 41.0184 237.534 46.3758L237.428 46.2762C241.855 46.0068 246.862 45.702 252.262 45.3738L252.503 45.3588L252.367 45.5586C249.517 49.7478 246.387 54.3474 243.079 59.2092L243.07 59.0466C245.796 62.1552 248.699 65.4654 251.7 68.886L251.891 69.1038L251.602 69.1206C247.4 69.3672 242.912 69.6306 238.306 69.9012L238.445 69.7446C238.752 74.7528 239.077 80.064 239.41 85.4988L239.428 85.7928L239.176 85.6386C234.986 83.0694 230.548 80.3472 226.034 77.5788L226.207 77.5716C223.845 79.3086 221.32 81.1644 218.774 83.0364C215.564 85.3962 212.387 87.7314 209.253 90.0354L208.92 90.2802L209.009 89.8764C210.443 83.3646 211.846 77.0016 213.205 70.8306L213.332 71.0136C207.798 70.2666 202.421 69.5406 197.223 68.8386L196.889 68.7936L197.151 68.5818C201.458 65.0988 205.596 61.752 209.554 58.551L209.545 58.7532C205.081 54.363 200.87 50.22 196.953 46.3674L196.733 46.1508L197.041 46.1604C202.927 46.344 208.258 46.5102 213.073 46.6608L212.969 46.7598C213.127 40.914 213.261 35.9604 213.373 31.7964L213.378 31.6242L213.501 31.7442C217.307 35.4492 220.241 38.3064 222.23 40.242C223.22 41.211 223.975 41.9484 224.486 42.4488C224.993 42.9468 225.252 43.2114 225.252 43.2114C225.252 43.2114 224.993 42.9744 224.483 42.489C223.969 41.997 223.21 41.2722 222.214 40.3194C220.205 38.3904 217.241 35.544 213.397 31.8522L213.523 31.8C213.425 35.9646 213.309 40.9188 213.171 46.7646L213.169 46.8666L213.066 46.8636C208.25 46.725 202.919 46.5714 197.033 46.4016L197.121 46.1946C201.044 50.0406 205.262 54.1764 209.734 58.5594L209.842 58.6656L209.724 58.7616C205.77 61.9674 201.635 65.319 197.333 68.8074L197.261 68.5506C202.459 69.2484 207.838 69.9702 213.372 70.713L213.535 70.7346L213.5 70.8954C212.143 77.067 210.743 83.4306 209.312 89.9424L209.068 89.7834C212.202 87.4794 215.378 85.1436 218.588 82.7832C221.135 80.9118 223.66 79.0554 226.022 77.319L226.106 77.2566L226.196 77.3118C230.71 80.082 235.147 82.8048 239.336 85.3758L239.102 85.5156C238.773 80.0802 238.451 74.7696 238.148 69.7608L238.139 69.6126L238.288 69.6042C242.894 69.3384 247.382 69.0792 251.584 68.8368L251.486 69.0714C248.49 65.6472 245.591 62.3328 242.869 59.2206L242.801 59.1426L242.859 59.0574C246.176 54.2016 249.314 49.6068 252.171 45.423L252.276 45.6084C246.875 45.924 241.867 46.2162 237.439 46.4748L237.333 46.4808V46.3746C237.323 41.0172 237.315 36.273 237.308 32.295L237.434 32.3508C233.527 35.8422 230.48 38.5632 228.405 40.4172C227.376 41.3322 226.589 42.0324 226.053 42.5088C225.523 42.9804 225.252 43.2114 225.252 43.2114Z" fill="#263238"/>
<path d="M208.688 90.6372L208.865 89.832L208.804 89.793L208.886 89.7324L212.988 71.1192L197.329 69.0054L197.251 69.0684L197.229 68.9916L196.525 68.8962L197.077 68.4492L197.055 68.3724L197.155 68.3856L209.21 58.6356L196.923 46.548L196.809 46.545L196.842 46.4682L196.354 45.9882L197.038 46.0098L197.071 45.9342L197.152 46.0134L212.825 46.5024L213.22 31.8912L213.126 31.8006L213.224 31.7604L213.236 31.2762L213.582 31.6134L213.679 31.5738L213.676 31.7052L224.59 42.3414C224.913 42.6588 225.136 42.8814 225.255 43.0014C225.38 42.8844 225.613 42.6678 225.95 42.3594L237.158 32.1966L237.157 32.0664L237.254 32.1096L237.608 31.7898L237.61 32.2662L237.708 32.31L237.61 32.3976L237.683 46.1106L252.122 45.2322L252.184 45.1422L252.231 45.2256L252.8 45.1908L252.478 45.6624L252.526 45.7464L252.417 45.753L243.327 59.1132L251.719 68.6808L251.816 68.6754L251.783 68.7546L252.205 69.237L251.565 69.2748L251.531 69.354L251.467 69.2808L238.612 70.035L239.549 85.3332L239.625 85.38L239.554 85.4226L239.594 86.0724L239.039 85.7316L238.968 85.7742L238.963 85.6854L226.13 77.8158L209.434 90.0894L209.412 90.1884L209.351 90.1494L208.688 90.6372ZM209.536 89.6274L209.531 89.6442L225.854 77.6454L225.843 77.6388L209.536 89.6274ZM213.286 71.1594L209.253 89.463L209.267 89.4528L213.289 71.1594H213.286ZM213.587 71.1996L209.633 89.1834L225.568 77.4696L225.536 77.4504L225.598 77.448L226.1 77.079L226.631 77.4048L226.693 77.4024L226.663 77.4246L238.919 84.9462L238.018 70.0704L237.955 70.074L238.015 70.0068L237.982 69.4746L238.513 69.4434L238.573 69.375L238.577 69.4392L250.982 68.7234L242.998 59.5974L242.957 59.6574L242.95 59.5422L242.612 59.1564L242.9 58.734L242.893 58.6182L242.941 58.6734L251.739 45.792L237.685 46.6128L237.686 46.7244L237.574 46.6194L237.185 46.6422L237.184 46.2528L237.072 46.1484L237.183 46.1418L237.16 32.8014L226.153 42.624C225.621 43.095 225.349 43.326 225.349 43.326L225.252 43.218L225.151 43.3224C225.151 43.3224 224.89 43.0848 224.38 42.5982L222.11 40.4286L213.662 32.316L213.328 46.5192L213.439 46.5228L213.326 46.6302L213.316 47.022L212.923 47.0106L212.809 47.1174L212.812 47.007L197.722 46.572L209.659 58.2744L209.722 58.2234L209.716 58.3308L210.07 58.6764L209.683 58.9896L209.678 59.0946L209.621 59.0394L197.96 68.493L213.119 70.5276L213.132 70.4652L213.182 70.5366L213.718 70.6086L213.602 71.1366L213.653 71.2086L213.587 71.1996ZM226.391 77.6232L238.941 85.3194L238.94 85.311L226.402 77.616L226.391 77.6232ZM239.23 85.1364L239.237 85.1406L238.669 75.8568L239.23 85.1364ZM209.552 70.3524L213.053 70.8252L213.053 70.8228L209.552 70.3524Z" fill="#263238"/>
<path d="M227.765 52.6704L226.577 63.7458C226.48 64.6512 225.722 65.3424 224.812 65.3574C223.852 65.3724 223.048 64.632 222.983 63.6732L222.238 52.4574C222.182 51.6084 222.882 50.9016 223.732 50.9502L226.439 51.1062C227.246 51.153 227.851 51.8664 227.765 52.6704Z" fill="#FF725E"/>
<path d="M222.037 69.9708C222.211 71.9094 224.244 73.0422 225.984 72.1692C226.955 71.682 227.548 70.6182 227.45 69.5358C227.276 67.5984 225.244 66.4668 223.505 67.338C222.533 67.824 221.94 68.8878 222.037 69.9708Z" fill="#FF725E"/>
<path d="M202.066 290.387H101.035L105.94 265.442H197.098L202.066 290.387Z" fill="#263238"/>
<path d="M255.837 186.32C255.837 186.32 254.558 185.116 254.407 180.074C254.257 175.032 254.783 171.57 254.407 168.936C254.031 166.302 252.771 161.938 254.38 161.636C255.988 161.335 258.17 161.938 259.299 167.13C260.428 172.322 259.976 174.053 263.89 174.58C267.803 175.107 271.942 172.097 273.296 170.743C274.651 169.388 280.596 162.037 282.628 161.573C284.659 161.11 284.446 163.518 284.22 163.744C283.994 163.97 276.435 173.848 275.479 175.108C275.225 175.442 275.629 176.161 276.683 176.011C277.736 175.86 286.014 171.345 287.444 170.442C288.874 169.539 291.206 168.787 291.508 170.442C291.809 172.097 289.325 173.897 289.325 173.897C289.325 173.897 290.755 174.581 289.476 176.011C288.197 177.44 275.404 184.74 275.404 184.74C275.404 184.74 274.726 187.449 274.199 188.126C273.673 188.804 265.395 195.125 263.664 195.275C261.933 195.426 259.976 195.802 259.976 195.802L257.267 197.383C257.267 197.383 253.128 190.996 254.366 187.433C254.459 187.162 255.837 186.32 255.837 186.32Z" fill="#FFBF9D"/>
<path d="M275.332 185.18C275.311 185.174 275.338 185.005 275.395 184.706C275.446 184.406 275.543 183.973 275.533 183.442C275.53 182.923 275.348 182.272 274.826 181.843C274.576 181.639 274.219 181.511 273.896 181.584C273.573 181.655 273.317 181.969 273.059 182.29C272.546 182.845 272.263 183.485 272.017 184.103C271.779 184.718 271.603 185.297 271.477 185.797L271.247 185.746C271.232 185.8 271.278 185.854 271.311 185.86C271.315 185.864 271.33 185.862 271.32 185.863C271.313 185.862 271.297 185.864 271.282 185.867L271.179 185.891C271.109 185.911 271.04 185.935 270.973 185.958C270.838 186.006 270.712 186.056 270.595 186.105C270.36 186.203 270.161 186.296 270.002 186.377C269.842 186.458 269.723 186.529 269.648 186.583C269.572 186.637 269.558 186.674 269.546 186.677C269.492 186.661 269.623 186.452 269.936 186.263C270.09 186.163 270.284 186.05 270.517 185.933C270.633 185.875 270.759 185.816 270.896 185.759C270.965 185.731 271.036 185.702 271.113 185.676C271.151 185.663 271.192 185.651 271.236 185.641C271.26 185.636 271.282 185.63 271.316 185.629C271.326 185.627 271.361 185.63 271.384 185.637C271.438 185.651 271.495 185.72 271.477 185.797L271.247 185.746C271.353 185.227 271.513 184.634 271.744 184C271.973 183.378 272.29 182.66 272.816 182.093C273.074 181.781 273.357 181.395 273.827 181.285C274.284 181.191 274.708 181.369 275.008 181.619C275.614 182.139 275.778 182.888 275.754 183.441C275.735 184.008 275.602 184.441 275.513 184.735C275.419 185.029 275.353 185.185 275.332 185.18Z" fill="#FF9A6C"/>
<path d="M289.421 174.037C289.404 174.064 289.258 173.926 288.932 173.869C288.611 173.805 288.125 173.878 287.572 174.11C286.384 174.666 284.895 175.361 283.249 176.13C281.552 176.909 280.009 177.598 278.886 178.082C277.763 178.566 277.059 178.846 277.041 178.807C277.023 178.768 277.694 178.417 278.794 177.881C279.894 177.346 281.423 176.625 283.119 175.846C284.821 175.072 286.346 174.37 287.493 173.904C288.077 173.688 288.614 173.641 288.96 173.75C289.309 173.854 289.431 174.033 289.421 174.037Z" fill="#FF9A6C"/>
<path d="M268.218 186.97C268.238 187 267.85 187.321 267.118 187.67C266.39 188.026 265.303 188.341 264.093 188.525C262.883 188.709 261.802 188.86 261.058 189.116C260.309 189.358 259.901 189.641 259.871 189.597C259.849 189.572 260.223 189.215 260.982 188.908C261.734 188.588 262.846 188.398 264.043 188.217C265.242 188.033 266.298 187.763 267.031 187.467C267.765 187.179 268.192 186.928 268.218 186.97Z" fill="#FF9A6C"/>
<path d="M273.65 181.688C273.557 181.699 273.376 180.309 272.858 178.674C272.351 177.035 271.707 175.79 271.789 175.746C271.855 175.703 272.636 176.905 273.157 178.581C273.685 180.253 273.729 181.686 273.65 181.688Z" fill="#FF9A6C"/>
<path d="M261.529 184.679C261.487 184.647 261.816 184.24 262.171 183.493C262.528 182.753 262.877 181.64 262.847 180.385C262.816 179.13 262.414 178.035 262.022 177.313C261.631 176.584 261.283 176.194 261.323 176.159C261.346 176.135 261.758 176.477 262.214 177.203C262.669 177.919 263.128 179.057 263.159 180.378C263.191 181.698 262.787 182.857 262.368 183.595C261.948 184.342 261.553 184.703 261.529 184.679Z" fill="#FF9A6C"/>
<path d="M19.7934 188.668C19.7934 188.668 25.161 189.895 28.5348 190.355C30.4458 190.615 36.4938 191.99 39.8526 193.837C42.3108 195.188 41.5638 197.963 41.5638 197.963L48.9354 186.574L47.5506 182.687C47.5506 182.687 48.3396 176.689 46.9374 173.025C45.6318 169.613 49.0086 160.123 46.7838 159.836C44.331 159.521 43.2564 161.677 42.03 165.971C40.803 170.265 40.0362 172.718 37.1226 173.179C34.209 173.639 25.3608 168.514 21.846 165.916C19.0458 163.847 15.516 161.593 14.7042 163.227C13.8606 164.926 17.5668 168.952 24.7524 174.132C25.1016 174.302 25.8774 176.155 21.48 174.251C19.9068 173.57 11.5002 167.419 9.66 168.338C7.8198 169.259 9.0222 171.399 9.9318 172.426C11.133 173.782 18.7488 178.529 18.7488 178.529C18.7488 178.529 9.9336 175.722 9.3204 176.182C8.7072 176.642 7.9848 177.537 8.9046 178.885C9.825 180.232 17.2014 183.425 19.5018 184.345C21.8022 185.266 25.6242 185.53 25.6242 185.53C25.0974 185.53 20.226 185.333 19.4688 185.728C18.7116 186.122 18.4482 187.307 18.7116 187.768C18.9756 188.23 19.7934 188.668 19.7934 188.668Z" fill="#FFBF9D"/>
<path d="M38.4246 185.764C38.412 185.778 38.2662 185.676 38.031 185.457C37.7958 185.239 37.482 184.892 37.1574 184.416C36.507 183.477 35.8614 181.927 35.9232 180.142C35.9886 178.356 36.7428 176.855 37.4586 175.965C37.8162 175.513 38.154 175.189 38.4042 174.989C38.6538 174.788 38.8068 174.697 38.8182 174.712C38.8566 174.755 38.2872 175.184 37.6356 176.098C36.9852 176.996 36.2976 178.448 36.2352 180.153C36.1764 181.858 36.7578 183.355 37.3428 184.297C37.9284 185.255 38.4666 185.723 38.4246 185.764Z" fill="#FF9A6C"/>
<path d="M28.323 174.778C28.3668 174.8 28.1292 175.339 27.8016 176.226C27.4734 177.113 27.0756 178.359 26.787 179.77C26.5014 181.183 26.3808 182.485 26.337 183.43C26.292 184.375 26.3004 184.964 26.2518 184.966C26.2146 184.969 26.1276 184.382 26.1162 183.425C26.1036 182.47 26.1906 181.142 26.481 179.708C26.7738 178.274 27.2118 177.019 27.597 176.144C27.9804 175.267 28.2894 174.761 28.323 174.778Z" fill="#FF9A6C"/>
<path d="M25.0962 180.439C25.083 180.52 23.5692 180.33 21.7626 179.817C19.9548 179.309 18.5652 178.679 18.5964 178.603C18.6294 178.519 20.0568 179.013 21.8478 179.516C23.6364 180.025 25.1124 180.35 25.0962 180.439Z" fill="#FF9A6C"/>
<path d="M258.458 200.576L261.922 197.581L252.334 180.596C252.31 180.758 249.56 182.173 249.56 182.173L258.458 200.576Z" fill="#E0E0E0"/>
<path d="M251.35 180.305C251.755 180.611 260.789 202.583 260.789 202.583C260.789 202.583 224.961 222.641 216.717 224.941C208.474 227.242 203.61 222.947 201.312 220.34C199.015 217.733 192.84 207.158 192.84 207.158L199.553 157.203L201.862 146.831C201.862 146.831 205.736 148.727 206.817 154.095C207.898 159.463 212.528 194.576 212.528 194.576C212.528 194.576 216.261 191.88 216.32 196.231L251.35 180.305Z" fill="#FF725E"/>
<path d="M213.044 208.485C213.003 208.477 213.095 207.771 213.311 206.641C213.526 205.511 213.872 203.959 214.329 202.264C214.787 200.569 215.266 199.052 215.64 197.965C216.015 196.878 216.28 196.217 216.32 196.231C216.362 196.244 216.171 196.93 215.851 198.032C215.53 199.134 215.087 200.656 214.63 202.345C214.175 204.034 213.796 205.573 213.526 206.688C213.257 207.803 213.088 208.493 213.044 208.485Z" fill="#263238"/>
<path d="M208.104 204.413C208.082 204.412 208.076 204.259 208.083 203.979C208.098 203.701 208.138 203.297 208.246 202.81C208.444 201.829 208.947 200.528 209.674 199.198C210.401 197.867 211.134 196.717 211.653 195.876C212.18 195.039 212.524 194.533 212.561 194.555C212.598 194.576 212.321 195.123 211.844 195.988C211.374 196.857 210.668 198.031 209.949 199.347C209.229 200.663 208.709 201.916 208.461 202.862C208.195 203.805 208.159 204.418 208.104 204.413Z" fill="#263238"/>
<path d="M42.81 201.994L39.3456 199L48.9336 182.015C48.9576 182.176 51.7074 183.592 51.7074 183.592L42.81 201.994Z" fill="#E0E0E0"/>
<path d="M51.2982 181.723C50.8872 182.03 41.733 204.002 41.733 204.002C41.733 204.002 78.0408 224.059 86.394 226.36C94.7472 228.66 99.6774 224.366 102.005 221.759C104.333 219.152 110.093 210.379 110.093 210.379L102.031 148.046C102.031 148.046 98.7606 149.566 97.665 154.934C96.5694 160.301 90.6384 195.995 90.6384 195.995C90.6384 195.995 86.8554 193.299 86.7954 197.65L51.2982 181.723Z" fill="#FF725E"/>
<path d="M186.393 263.889H112.039V263.289C111.928 263.289 111.852 263.36 111.833 263.394C112.342 262.477 113.795 246.116 114.649 235.323L103.012 148.198L127.304 142.031L132.698 135.657H164.301L167.017 139.67L195.777 149.761L195.742 150.005L183.226 237.433L186.393 263.889ZM112.469 263.289H185.717L182.622 237.425L182.627 237.386L195.114 150.164L166.632 140.171L163.982 136.257H132.977L127.639 142.566L103.678 148.648L115.252 235.307L115.249 235.339C115.244 235.41 114.683 242.491 114.047 249.48C113.191 258.895 112.77 262.157 112.469 263.289Z" fill="white"/>
<path d="M150.747 251.384L150.455 250.77C149.496 248.751 126.94 201.211 125.165 191.769C123.387 182.312 132.155 143.428 132.545 141.708L133.709 135.656H164.345L164.42 135.844C164.872 136.956 167.126 142.545 167.126 143.356C167.135 143.464 167.317 144.277 167.546 145.307C171.829 164.511 176.042 189.569 171.799 199.888C166.052 213.863 151.154 250.388 151.005 250.754L150.747 251.384ZM134.204 136.256L133.13 141.836C133.039 142.24 123.997 182.314 125.754 191.657C127.408 200.45 147.997 244.169 150.706 249.897C152.716 244.969 165.914 212.619 171.243 199.659C175.427 189.485 171.223 164.558 166.96 145.438C166.601 143.831 166.525 143.475 166.525 143.356C166.525 142.834 164.971 138.805 163.939 136.257H134.204V136.256Z" fill="white"/>
<path d="M136.775 127.418L125.38 137.372L101.975 148.066L103.928 178.777L112.516 223.635L101.035 281.203L145.682 290.387L150.788 269.606L155.852 290.387L204.302 281.427L190.834 220.987L201.862 146.83L174.187 135.858L163.843 125.812L136.775 127.418Z" fill="#FF725E"/>
<path d="M136.775 127.418C136.859 128.056 131.751 141.57 133.492 147.52C135.233 153.469 150.875 207.447 151.108 207.157C151.34 206.866 161.642 162.32 163.384 154.339C165.125 146.359 167.737 142.051 167.737 137.053C167.737 135.04 163.318 126.545 163.318 126.545L136.775 127.418Z" fill="white"/>
<path d="M143.956 148.568C144.101 149.003 146.672 153.999 146.672 153.999H152.24L154.927 148.604L150.618 144.182H148.126L143.956 148.568Z" fill="#263238"/>
<path d="M146.672 154C146.672 154 144.491 168.376 144.375 175.089C144.241 182.778 145.179 188.438 145.179 188.438L151.108 207.157L156.874 185.158L152.241 154H146.672Z" fill="#263238"/>
<path d="M156.709 183.505C156.749 183.515 156.634 184.173 156.391 185.355C156.112 186.637 155.747 188.318 155.306 190.348C154.365 194.558 153.025 200.365 151.508 206.769C151.471 206.926 151.433 207.082 151.4 207.226L151.142 208.313L150.82 207.243C148.951 201.04 147.298 195.436 146.13 191.378C145.58 189.422 145.126 187.802 144.779 186.567C144.473 185.428 144.322 184.794 144.362 184.782C144.401 184.77 144.626 185.382 145 186.5C145.394 187.721 145.91 189.322 146.533 191.256C147.804 195.283 149.523 200.867 151.394 207.069L150.815 207.086C150.849 206.942 150.886 206.786 150.923 206.63C152.44 200.225 153.845 194.434 154.892 190.249C155.409 188.237 155.837 186.57 156.163 185.3C156.476 184.135 156.668 183.496 156.709 183.505Z" fill="#263238"/>
<path d="M90.1164 209.903C90.0726 209.912 89.8998 209.214 89.6274 208.086C89.355 206.958 88.9752 205.402 88.521 203.692C88.0656 201.982 87.6222 200.442 87.2976 199.328C86.9736 198.214 86.7768 197.522 86.8188 197.508C86.8578 197.495 87.1296 198.161 87.5082 199.261C87.8868 200.36 88.3662 201.896 88.8228 203.611C89.2788 205.327 89.625 206.897 89.8428 208.039C90.0612 209.182 90.1572 209.896 90.1164 209.903Z" fill="#263238"/>
<path d="M95.064 205.605C95.0082 205.61 94.9728 204.995 94.7028 204.051C94.4508 203.103 93.9222 201.85 93.1932 200.534C92.4648 199.219 91.7508 198.047 91.2744 197.179C90.7902 196.314 90.5094 195.768 90.5466 195.746C90.5838 195.724 90.9312 196.229 91.464 197.065C91.9896 197.906 92.7306 199.054 93.4674 200.384C94.2048 201.713 94.7154 203.014 94.917 203.997C95.0274 204.486 95.0676 204.89 95.0838 205.169C95.0916 205.45 95.085 205.604 95.064 205.605Z" fill="#263238"/>
<path d="M101.035 159.806C101.041 159.805 101.053 159.861 101.072 159.97C101.093 160.097 101.119 160.257 101.15 160.456C101.215 160.906 101.305 161.532 101.419 162.326C101.651 163.951 101.99 166.301 102.46 169.197C103.375 174.992 104.803 182.972 106.479 191.768C108.176 200.553 109.712 208.504 110.828 214.286C111.362 217.154 111.796 219.482 112.1 221.12C112.238 221.911 112.346 222.533 112.424 222.982C112.455 223.18 112.48 223.34 112.5 223.468C112.516 223.577 112.521 223.634 112.516 223.635C112.51 223.636 112.495 223.581 112.469 223.474C112.441 223.348 112.406 223.19 112.362 222.994C112.27 222.548 112.142 221.929 111.981 221.143C111.653 219.51 111.186 217.189 110.611 214.329C109.459 208.574 107.852 200.626 106.171 191.827C104.495 183.029 103.1 175.039 102.241 169.231C101.799 166.329 101.492 163.973 101.298 162.343C101.209 161.545 101.138 160.916 101.087 160.464C101.068 160.264 101.053 160.103 101.041 159.974C101.032 159.863 101.03 159.806 101.035 159.806Z" fill="#263238"/>
<path d="M150.475 208.408C150.475 208.408 150.178 208.316 149.693 207.985C149.214 207.65 148.57 207.067 147.859 206.218C146.422 204.529 144.685 201.823 142.801 198.35C139.025 191.403 134.602 181.409 130.142 170.216C127.753 164.215 125.587 158.479 123.728 153.304C123.264 152.01 122.819 150.751 122.404 149.528C121.993 148.327 121.572 147.041 121.912 145.81C121.993 145.507 122.141 145.226 122.319 144.974C122.512 144.733 122.737 144.523 122.99 144.362C123.499 144.046 124.066 143.883 124.616 143.806C125.723 143.653 126.779 143.756 127.754 143.95L127.696 144.15C125.56 143.353 123.746 142.676 122.252 142.118L122.164 142.085L122.216 142.007C123.198 140.551 123.958 139.423 124.483 138.644C124.734 138.275 124.929 137.989 125.071 137.78C125.201 137.59 125.277 137.484 125.27 137.497C125.289 137.49 125.224 137.604 125.104 137.802C124.97 138.015 124.786 138.308 124.549 138.688C124.037 139.476 123.298 140.617 122.342 142.09L122.305 141.979C123.805 142.522 125.626 143.18 127.769 143.955L127.711 144.155C126.765 143.974 125.715 143.881 124.652 144.035C124.123 144.113 123.589 144.274 123.124 144.567C122.891 144.715 122.692 144.907 122.519 145.124C122.361 145.351 122.229 145.602 122.157 145.879C121.995 146.429 122.032 147.04 122.135 147.637C122.243 148.238 122.456 148.83 122.662 149.442C123.081 150.661 123.53 151.917 123.998 153.209C125.873 158.374 128.048 164.104 130.436 170.101C134.893 181.288 139.28 191.286 142.999 198.247C144.855 201.725 146.557 204.439 147.956 206.141C148.649 206.997 149.272 207.587 149.734 207.935C150.197 208.277 150.485 208.388 150.475 208.408Z" fill="#263238"/>
<path d="M150.475 208.408C150.466 208.388 150.755 208.276 151.222 207.929C151.684 207.577 152.305 206.977 152.99 206.108C154.375 204.38 156.046 201.628 157.858 198.104C161.492 191.055 165.745 180.94 170.059 169.633C172.377 163.557 174.484 157.754 176.312 152.533C176.762 151.225 177.2 149.956 177.622 148.727C177.824 148.109 178.047 147.514 178.156 146.91C178.267 146.309 178.304 145.697 178.155 145.139C178.01 144.581 177.664 144.107 177.198 143.808C176.735 143.506 176.196 143.346 175.665 143.264C174.596 143.107 173.541 143.199 172.591 143.381L172.532 143.182C174.676 142.406 176.496 141.749 177.996 141.206L177.96 141.317C177.004 139.843 176.264 138.703 175.753 137.914C175.515 137.536 175.331 137.242 175.197 137.029C175.077 136.831 175.012 136.717 175.031 136.724C175.024 136.711 175.1 136.817 175.231 137.008C175.372 137.215 175.567 137.502 175.818 137.872C176.342 138.65 177.102 139.778 178.084 141.235L178.136 141.313L178.048 141.346C176.554 141.904 174.741 142.58 172.604 143.378L172.545 143.179C173.525 142.983 174.587 142.881 175.7 143.036C176.252 143.118 176.824 143.279 177.331 143.607C177.843 143.929 178.238 144.464 178.398 145.075C178.718 146.317 178.288 147.605 177.878 148.814C177.46 150.044 177.026 151.316 176.581 152.627C174.769 157.858 172.67 163.666 170.351 169.745C166.034 181.058 161.746 191.169 158.054 198.207C156.213 201.724 154.508 204.469 153.085 206.185C152.38 207.047 151.739 207.641 151.26 207.98C150.774 208.315 150.475 208.408 150.475 208.408Z" fill="#263238"/>
<path d="M150.788 269.606C150.701 269.606 150.632 256.24 150.632 239.756C150.632 223.267 150.702 209.904 150.788 209.904C150.874 209.904 150.944 223.267 150.944 239.756C150.944 256.24 150.874 269.606 150.788 269.606Z" fill="#263238"/>
<path d="M149.028 143.125C149.044 143.138 148.867 143.371 148.532 143.782C148.156 144.232 147.672 144.811 147.09 145.507C145.859 146.959 144.134 148.961 142.193 151.187L142.09 151.305L141.977 151.208C141.793 151.05 141.615 150.879 141.436 150.707C139.21 148.513 137.265 146.469 135.855 144.988C135.188 144.274 134.633 143.678 134.204 143.218C133.819 142.795 133.615 142.553 133.63 142.538C133.645 142.523 133.88 142.736 134.291 143.133C134.738 143.575 135.317 144.147 136.013 144.834C137.462 146.274 139.436 148.297 141.653 150.482C141.831 150.653 142.007 150.822 142.171 150.964L141.955 150.985C143.9 148.762 145.652 146.784 146.927 145.368C147.539 144.697 148.048 144.139 148.444 143.705C148.805 143.319 149.012 143.112 149.028 143.125Z" fill="#263238"/>
<path d="M166.554 140.795C166.57 140.809 166.361 141.074 165.967 141.541C165.573 142.006 164.995 142.674 164.266 143.486C162.806 145.106 160.738 147.311 158.239 149.522C157.81 149.9 157.382 150.266 156.973 150.611L156.866 150.701L156.766 150.604C154.654 148.563 152.797 146.744 151.516 145.39C150.874 144.715 150.37 144.161 150.034 143.77C149.697 143.38 149.524 143.158 149.537 143.145C149.553 143.131 149.755 143.329 150.116 143.695C150.517 144.097 151.036 144.617 151.663 145.246C152.981 146.559 154.861 148.347 156.982 150.381L156.775 150.374C157.178 150.026 157.601 149.66 158.032 149.287C160.519 147.088 162.605 144.916 164.104 143.336C164.824 142.574 165.421 141.943 165.877 141.459C166.298 141.019 166.538 140.78 166.554 140.795Z" fill="#263238"/>
<path d="M200.896 157.367C200.902 157.368 200.896 157.424 200.881 157.532C200.861 157.657 200.836 157.815 200.804 158.011C200.726 158.453 200.619 159.066 200.482 159.844C200.189 161.434 199.798 163.741 199.312 166.59C198.348 172.29 197.088 180.176 195.744 188.894C194.422 197.609 193.226 205.496 192.356 211.232C191.924 214.073 191.575 216.379 191.328 218.002C191.204 218.782 191.107 219.397 191.036 219.841C191.002 220.036 190.975 220.193 190.952 220.318C190.932 220.425 190.919 220.48 190.913 220.478C190.908 220.478 190.91 220.421 190.921 220.313C190.934 220.186 190.952 220.028 190.973 219.831C191.03 219.385 191.108 218.768 191.207 217.984C191.43 216.358 191.747 214.046 192.137 211.2C192.943 205.474 194.089 197.568 195.435 188.846C196.779 180.127 198.074 172.243 199.094 166.551C199.607 163.705 200.033 161.404 200.362 159.821C200.524 159.047 200.65 158.437 200.742 157.998C200.786 157.805 200.821 157.649 200.849 157.525C200.875 157.42 200.891 157.366 200.896 157.367Z" fill="#263238"/>
<g opacity="0.3">
<path d="M107.928 213.616C107.928 213.616 104.613 183.007 104.635 183.128C104.656 183.25 110.093 210.379 110.093 210.379L107.928 213.616Z" fill="black"/>
</g>
<path d="M194.896 242.833C192.58 244.656 189.147 245.849 185.558 246.557C181.97 247.265 178.194 247.528 174.448 247.788C174.448 247.788 176.564 256.464 176.564 257.013C176.564 257.562 192.488 255.145 197.43 252.84L198.857 251.961L194.896 242.833Z" fill="#FF725E"/>
<path d="M194.895 242.833C194.897 242.828 194.922 242.877 194.969 242.977C195.024 243.096 195.093 243.245 195.179 243.432C195.373 243.862 195.641 244.459 195.984 245.218C196.695 246.817 197.708 249.097 198.961 251.915L199.001 252.004L198.917 252.056C198.474 252.331 197.991 252.631 197.493 252.941L197.487 252.944L197.481 252.947C196.232 253.522 194.825 253.949 193.327 254.36C191.827 254.767 190.228 255.138 188.551 255.488C186.874 255.838 185.118 256.167 183.301 256.468C181.483 256.762 179.609 257.057 177.666 257.218C177.431 257.234 177.197 257.248 176.957 257.247C176.831 257.242 176.725 257.249 176.56 257.203C176.535 257.194 176.496 257.171 176.47 257.15C176.444 257.125 176.419 257.08 176.411 257.039L176.405 256.998L176.395 256.924C176.39 256.876 176.383 256.823 176.371 256.766C176.291 256.319 176.189 255.87 176.093 255.427C175.889 254.539 175.688 253.663 175.49 252.801C175.081 251.08 174.683 249.414 174.304 247.823L174.263 247.652L174.437 247.641C177.541 247.435 180.421 247.224 182.974 246.866C185.527 246.516 187.749 246.015 189.538 245.432C191.33 244.855 192.683 244.201 193.565 243.684C194.009 243.425 194.331 243.211 194.56 243.053C194.661 242.985 194.744 242.93 194.813 242.882C194.87 242.846 194.897 242.829 194.895 242.833C194.894 242.837 194.866 242.862 194.812 242.908C194.749 242.96 194.673 243.023 194.58 243.1C194.38 243.259 194.051 243.496 193.616 243.767C192.744 244.314 191.392 244.999 189.596 245.605C187.803 246.216 185.571 246.743 183.009 247.112C180.448 247.491 177.562 247.718 174.458 247.934L174.591 247.753C174.974 249.344 175.376 251.009 175.79 252.73C175.99 253.594 176.192 254.47 176.397 255.359C176.494 255.806 176.596 256.251 176.68 256.712C176.691 256.768 176.701 256.83 176.707 256.897L176.719 256.994L176.72 257.006L176.72 257.012C176.465 257.013 176.651 257.012 176.596 257.012L176.599 257.012C176.609 257.01 176.612 257.003 176.613 256.996C176.662 256.96 176.678 256.888 176.668 256.909C176.726 256.927 176.854 256.934 176.96 256.934C177.184 256.935 177.414 256.922 177.644 256.906C179.562 256.748 181.439 256.454 183.252 256.165C185.065 255.868 186.818 255.544 188.492 255.201C190.166 254.857 191.762 254.494 193.258 254.099C194.75 253.698 196.154 253.282 197.379 252.73L197.368 252.736C197.869 252.431 198.354 252.135 198.799 251.864L198.755 252.005C197.564 249.196 196.602 246.923 195.927 245.329C195.601 244.548 195.344 243.934 195.16 243.493C195.078 243.295 195.013 243.134 194.962 243.008C194.917 242.898 194.894 242.839 194.895 242.833Z" fill="#263238"/>
<path d="M108.597 242.833C110.913 244.656 114.346 245.849 117.934 246.557C121.523 247.265 125.299 247.528 129.045 247.788C129.045 247.788 126.929 256.464 126.929 257.013C126.929 257.562 111.005 255.145 106.063 252.84L104.635 251.961L108.597 242.833Z" fill="#FF725E"/>
<path d="M108.597 242.833C108.598 242.839 108.576 242.898 108.532 243.009C108.48 243.136 108.415 243.295 108.333 243.494C108.149 243.935 107.892 244.549 107.566 245.33C106.891 246.924 105.928 249.196 104.738 252.006L104.694 251.865C105.139 252.136 105.625 252.432 106.126 252.737L106.114 252.731C107.339 253.283 108.744 253.7 110.236 254.1C111.731 254.496 113.328 254.858 115.002 255.202C116.676 255.545 118.429 255.869 120.242 256.166C122.054 256.456 123.931 256.748 125.849 256.907C126.079 256.923 126.31 256.936 126.533 256.936C126.639 256.934 126.767 256.928 126.826 256.91C126.826 256.91 126.812 256.915 126.811 256.922C126.792 256.936 126.773 256.967 126.772 256.996C126.773 257.033 126.775 256.994 126.775 256.994L126.786 256.897C126.793 256.831 126.802 256.768 126.814 256.713C126.897 256.252 126.998 255.806 127.096 255.359C127.301 254.471 127.503 253.594 127.702 252.731C128.117 251.01 128.518 249.344 128.902 247.753L129.035 247.935C125.931 247.718 123.044 247.492 120.483 247.113C117.922 246.743 115.689 246.216 113.896 245.605C112.1 245 110.749 244.315 109.877 243.768C109.442 243.497 109.112 243.26 108.913 243.1C108.82 243.023 108.745 242.961 108.68 242.908C108.627 242.862 108.598 242.837 108.597 242.833C108.596 242.829 108.623 242.846 108.678 242.882C108.748 242.929 108.83 242.985 108.932 243.053C109.161 243.211 109.483 243.425 109.927 243.684C110.809 244.201 112.162 244.855 113.954 245.432C115.743 246.015 117.965 246.516 120.518 246.866C123.071 247.224 125.951 247.435 129.055 247.641L129.229 247.652L129.188 247.823C128.809 249.414 128.412 251.08 128.002 252.801C127.804 253.663 127.603 254.539 127.399 255.427C127.303 255.87 127.201 256.319 127.121 256.766C127.109 256.824 127.102 256.876 127.097 256.924L127.087 256.998L127.081 257.039C127.073 257.08 127.048 257.125 127.022 257.15C126.995 257.171 126.957 257.194 126.932 257.203C126.768 257.249 126.661 257.242 126.535 257.247C126.295 257.248 126.061 257.234 125.826 257.218C123.884 257.057 122.01 256.762 120.191 256.468C118.373 256.168 116.618 255.839 114.941 255.488C113.264 255.137 111.665 254.766 110.165 254.36C108.667 253.949 107.259 253.522 106.011 252.947L106.005 252.944L105.999 252.941C105.501 252.631 105.018 252.331 104.575 252.056L104.491 252.004L104.531 251.915C105.784 249.097 106.797 246.817 107.509 245.218C107.851 244.459 108.12 243.861 108.314 243.432C108.4 243.245 108.469 243.095 108.523 242.977C108.571 242.876 108.596 242.828 108.597 242.833Z" fill="#263238"/>
<path d="M172.682 226.768C172.683 226.779 172.559 226.811 172.32 226.864C172.049 226.92 171.702 226.991 171.273 227.079C170.364 227.263 169.041 227.497 167.403 227.76C164.127 228.289 159.576 228.879 154.525 229.252C149.471 229.621 144.882 229.7 141.564 229.655C139.905 229.634 138.563 229.595 137.637 229.546C137.201 229.522 136.847 229.502 136.57 229.486C136.327 229.469 136.199 229.455 136.199 229.444C136.2 229.433 136.328 229.426 136.573 229.423C136.85 229.423 137.204 229.424 137.641 229.424C138.568 229.435 139.909 229.441 141.566 229.434C144.879 229.422 149.458 229.308 154.502 228.94C159.544 228.568 164.09 228.013 167.37 227.541C169.011 227.306 170.337 227.105 171.252 226.958C171.684 226.894 172.034 226.842 172.309 226.801C172.551 226.769 172.679 226.757 172.682 226.768Z" fill="#263238"/>
<path d="M166.302 231.556C166.303 231.566 166.203 231.582 166.013 231.602C165.787 231.621 165.512 231.644 165.181 231.673C164.41 231.729 163.375 231.805 162.12 231.897C159.536 232.087 155.968 232.376 152.036 232.782C148.103 233.191 144.552 233.639 141.983 233.984C140.736 234.151 139.708 234.289 138.941 234.392C138.611 234.432 138.338 234.466 138.113 234.493C137.923 234.513 137.822 234.518 137.821 234.508C137.819 234.497 137.916 234.471 138.103 234.431C138.326 234.388 138.597 234.335 138.923 234.272C139.636 234.14 140.671 233.966 141.953 233.766C144.515 233.365 148.067 232.882 152.005 232.472C155.942 232.066 159.517 231.811 162.107 231.677C163.403 231.61 164.451 231.568 165.176 231.552C165.509 231.547 165.784 231.543 166.012 231.539C166.201 231.539 166.302 231.545 166.302 231.556Z" fill="#263238"/>
<g opacity="0.3">
<path d="M123.087 151.087C123.087 151.087 135.51 198.858 149.028 207.388C141.242 198.13 132.019 173.611 123.087 151.087Z" fill="black"/>
</g>
<g opacity="0.3">
<path d="M176.927 151.697C176.927 151.697 165.765 198.521 152.247 207.051C160.033 197.792 167.995 174.222 176.927 151.697Z" fill="black"/>
</g>
<g opacity="0.3">
<path d="M212.95 208.909C212.878 209.248 212.822 209.749 213.044 210.017C213.362 210.403 213.844 210.284 214.175 209.909C214.505 209.534 214.592 209.01 214.665 208.515C215.261 204.479 215.724 200.267 216.32 196.231C215.258 198.61 214.732 201.263 214.072 203.861C213.628 205.609 213.319 207.172 212.95 208.909Z" fill="black"/>
</g>
<path d="M156.301 223.635C156.301 224.662 155.468 225.495 154.441 225.495C153.413 225.495 152.58 224.662 152.58 223.635C152.58 222.608 153.413 221.775 154.441 221.775C155.468 221.774 156.301 222.608 156.301 223.635Z" fill="#263238"/>
<path d="M156.874 239.091C156.874 240.118 156.041 240.951 155.014 240.951C153.986 240.951 153.154 240.118 153.154 239.091C153.154 238.064 153.986 237.231 155.014 237.231C156.041 237.231 156.874 238.064 156.874 239.091Z" fill="#263238"/>
<path d="M177.385 99.1296C177.293 99.1122 184.447 98.4102 184.447 98.4102C183.932 96.6204 185.076 94.065 186.922 93.8118C188.767 93.5586 190.637 95.2026 190.622 97.065C191.801 96.3324 193.597 97.029 193.973 98.3652C194.35 99.7014 193.182 101.233 191.794 101.223C192.531 102.743 192.043 104.755 190.69 105.767C189.338 106.781 187.271 106.684 186.019 105.549C185.883 106.204 185.008 106.513 184.415 106.203C183.823 105.892 183.553 105.146 183.65 104.485C183.746 103.823 184.143 103.241 184.604 102.757L177.515 101.906" fill="white"/>
<path d="M177.516 101.906C177.518 101.895 177.687 101.905 178.008 101.933C178.358 101.968 178.826 102.014 179.416 102.073C180.669 102.212 182.436 102.407 184.618 102.648L184.833 102.672L184.684 102.832C184.397 103.14 184.124 103.492 183.944 103.903C183.763 104.312 183.69 104.785 183.825 105.237C183.945 105.68 184.293 106.107 184.761 106.178C185.22 106.259 185.789 105.992 185.885 105.521L185.934 105.286L186.112 105.448C187.176 106.412 189.03 106.656 190.41 105.777C191.781 104.915 192.414 102.88 191.654 101.291L191.548 101.068L191.796 101.066C192.293 101.063 192.827 100.841 193.21 100.442C193.584 100.07 193.832 99.5712 193.88 99.0606C193.929 98.5506 193.755 98.037 193.407 97.6698C192.73 96.9222 191.519 96.6816 190.703 97.1922L190.473 97.3362L190.473 97.0626C190.471 96.0186 189.864 95.0538 189.051 94.503C188.249 93.9414 187.194 93.7494 186.369 94.1124C185.538 94.4844 185.004 95.28 184.713 96.0534C184.414 96.8382 184.368 97.6686 184.553 98.3796L184.586 98.5068L184.459 98.5182C182.29 98.7138 180.53 98.8722 179.28 98.9844C178.692 99.033 178.224 99.072 177.876 99.1008C177.555 99.1254 177.386 99.129 177.386 99.129C177.383 99.114 177.551 99.084 177.869 99.0396C178.217 98.9964 178.682 98.9382 179.268 98.8656C180.516 98.7294 182.273 98.5374 184.438 98.3016L184.344 98.4402C184.134 97.6758 184.176 96.8004 184.482 95.9688C184.784 95.151 185.333 94.2948 186.26 93.8664C188.159 93.042 190.737 94.6926 190.775 97.0656L190.544 96.9366C191.514 96.3396 192.856 96.6138 193.636 97.4628C194.037 97.8828 194.249 98.4984 194.19 99.0906C194.133 99.6834 193.853 100.243 193.431 100.664C192.999 101.113 192.384 101.378 191.794 101.379L191.935 101.155C192.762 102.906 192.077 105.08 190.572 106.03C189.057 106.979 187.083 106.705 185.928 105.651L186.155 105.577C186.085 105.899 185.853 106.157 185.585 106.295C185.316 106.435 185.011 106.486 184.719 106.438C184.111 106.333 183.72 105.809 183.585 105.305C183.436 104.788 183.528 104.246 183.731 103.808C183.931 103.363 184.225 102.997 184.527 102.681L184.593 102.865C182.415 102.583 180.653 102.354 179.402 102.192C178.815 102.109 178.349 102.044 178.002 101.995C177.682 101.947 177.515 101.917 177.516 101.906Z" fill="#263238"/>
<path d="M180.246 104.469C180.226 104.553 179.492 104.45 178.607 104.239C177.722 104.028 177.022 103.789 177.041 103.705C177.061 103.621 177.795 103.724 178.68 103.935C179.565 104.146 180.266 104.385 180.246 104.469Z" fill="#263238"/>
<path d="M183.311 101.133C183.311 101.219 182.237 101.29 180.913 101.29C179.587 101.29 178.513 101.219 178.513 101.133C178.513 101.047 179.587 100.977 180.913 100.977C182.237 100.976 183.311 101.047 183.311 101.133Z" fill="#263238"/>
<path d="M180.597 97.0326C180.618 97.1166 179.744 97.407 178.645 97.6812C177.545 97.956 176.637 98.1108 176.616 98.0268C176.595 97.9434 177.469 97.6524 178.569 97.3782C179.668 97.104 180.576 96.9492 180.597 97.0326Z" fill="#263238"/>
<path d="M147.949 60.726L146.749 60.7626C134.679 61.1316 124.911 70.704 124.309 82.7652C123.748 93.987 123.272 106.393 123.53 112.396C124.064 124.824 136.558 126.377 136.558 126.377C136.586 126.378 136.416 131.785 136.416 131.785L149.251 142.84L163.622 129.806L167.121 85.2354C167.84 72.2922 160.907 61.086 147.949 60.726Z" fill="#FFBF9D"/>
<path d="M136.558 126.377C136.558 126.377 144.408 126.597 152.599 121.097C152.599 121.097 148.991 130.562 136.551 129.822L136.558 126.377Z" fill="#FF9A6C"/>
<path d="M139.457 102.935C139.462 102.826 138.268 102.656 136.337 102.47C135.847 102.434 135.382 102.352 135.29 102.021C135.165 101.672 135.353 101.14 135.572 100.565C135.994 99.3702 136.436 98.1174 136.901 96.8058C138.743 91.455 140.06 87.0618 139.844 86.9892C139.628 86.9172 137.96 91.1952 136.118 96.5454C135.676 97.8648 135.252 99.1218 134.85 100.325C134.683 100.885 134.384 101.524 134.655 102.247C134.798 102.608 135.164 102.862 135.479 102.936C135.794 103.022 136.069 103.019 136.312 103.026C138.251 103.072 139.453 103.043 139.457 102.935Z" fill="#263238"/>
<path d="M166.387 94.4718C166.596 94.374 174.853 91.6842 174.841 100.192C174.829 108.7 165.283 106.888 165.269 106.643C165.254 106.399 166.387 94.4718 166.387 94.4718Z" fill="#FFBF9D"/>
<path d="M168.878 103.469C168.916 103.442 169.027 103.573 169.277 103.688C169.521 103.801 169.941 103.878 170.384 103.713C171.284 103.384 172.043 101.959 172.086 100.425C172.109 99.651 171.947 98.913 171.674 98.3028C171.415 97.68 171.013 97.245 170.561 97.1634C170.11 97.059 169.79 97.329 169.685 97.5684C169.571 97.806 169.625 97.9758 169.58 97.9908C169.556 98.0118 169.397 97.848 169.466 97.497C169.502 97.3278 169.601 97.1274 169.802 96.9642C170.006 96.798 170.306 96.714 170.621 96.7482C171.277 96.7944 171.867 97.3992 172.168 98.0694C172.505 98.7426 172.705 99.5724 172.679 100.442C172.622 102.156 171.742 103.759 170.512 104.113C169.913 104.269 169.414 104.087 169.156 103.886C168.894 103.675 168.849 103.485 168.878 103.469Z" fill="#FF9A6C"/>
<path d="M130.909 93.9408C130.904 94.9008 131.703 95.6958 132.693 95.7192C133.681 95.742 134.487 94.9848 134.491 94.0242C134.496 93.0642 133.698 92.2674 132.71 92.244C131.72 92.2218 130.913 92.9808 130.909 93.9408Z" fill="#263238"/>
<path d="M127.947 88.1694C128.176 88.3992 129.503 87.339 131.434 87.2844C133.36 87.201 134.806 88.1628 135.007 87.9168C135.107 87.8082 134.868 87.3876 134.238 86.9514C133.618 86.5182 132.569 86.1096 131.368 86.1522C130.166 86.1966 129.169 86.676 128.602 87.153C128.023 87.6324 127.834 88.0668 127.947 88.1694Z" fill="#263238"/>
<path d="M148.138 93.8166C148.133 94.7766 148.931 95.5716 149.921 95.595C150.909 95.6184 151.715 94.8606 151.72 93.9C151.724 92.94 150.926 92.1438 149.938 92.1204C148.949 92.0976 148.142 92.8572 148.138 93.8166Z" fill="#263238"/>
<path d="M146.87 88.0344C147.1 88.2642 148.43 87.204 150.357 87.1494C152.283 87.0672 153.729 88.0278 153.932 87.7818C154.031 87.6726 153.794 87.2526 153.161 86.817C152.541 86.3832 151.493 85.9752 150.292 86.0172C149.09 86.0616 148.093 86.541 147.525 87.0174C146.947 87.4974 146.758 87.9318 146.87 88.0344Z" fill="#263238"/>
<path d="M146.186 86.4474C146.564 86.865 148.246 85.8876 150.441 85.2684C152.624 84.6048 154.565 84.5196 154.661 83.9634C154.697 83.7006 154.213 83.3616 153.335 83.1714C152.464 82.9788 151.2 82.9788 149.887 83.3622C148.576 83.748 147.51 84.4308 146.878 85.0632C146.24 85.698 146.014 86.2458 146.186 86.4474Z" fill="#263238"/>
<path d="M129.211 83.6358C129.388 84.207 131.008 84.4494 132.732 85.224C134.479 85.947 135.773 86.9616 136.303 86.6946C136.544 86.5584 136.502 86.049 136.045 85.374C135.596 84.7044 134.695 83.91 133.502 83.3946C132.31 82.881 131.119 82.773 130.331 82.9092C129.533 83.0424 129.142 83.3652 129.211 83.6358Z" fill="#263238"/>
<path d="M120.846 97.8558C120.67 97.8558 113.319 96.7866 113.542 96.7866C114.518 96.1392 114.726 95.4798 114.333 94.431C113.927 93.3474 112.955 92.9694 111.807 92.8236C110.721 92.6862 109.564 92.676 108.596 93.1866C107.627 93.6972 106.937 94.8684 107.288 95.9052C105.649 94.9356 103.212 95.9022 102.683 97.7316C102.154 99.561 103.699 101.679 105.603 101.734C104.223 102.429 103.586 104.247 104.105 105.703C104.624 107.158 106.151 108.145 107.696 108.168C109.241 108.191 110.734 107.323 111.614 106.052C111.56 107.139 112.881 107.941 113.917 107.608C114.952 107.274 115.57 106.133 115.579 105.045C115.589 103.957 115.105 102.924 114.527 102.002L120.847 101.381" fill="white"/>
<path d="M120.846 101.381C120.847 101.39 120.701 101.413 120.421 101.449C120.117 101.485 119.706 101.534 119.185 101.596C118.078 101.715 116.506 101.884 114.536 102.097L114.607 101.951C114.955 102.5 115.298 103.12 115.513 103.841C115.726 104.552 115.789 105.403 115.469 106.196C115.175 106.966 114.478 107.753 113.488 107.809C113.011 107.826 112.528 107.669 112.138 107.368C111.751 107.071 111.451 106.584 111.476 106.045L111.727 106.13C111.129 106.99 110.242 107.711 109.168 108.077C108.101 108.453 106.824 108.392 105.767 107.8C104.717 107.237 103.84 106.139 103.778 104.84C103.705 103.581 104.327 102.215 105.533 101.595L105.598 101.891C105.399 101.874 105.182 101.857 104.974 101.797C104.006 101.545 103.229 100.831 102.798 99.9816C102.359 99.135 102.289 98.079 102.72 97.2288C103.586 95.5272 105.836 94.8906 107.363 95.7798L107.15 95.9526C106.936 95.3112 107.099 94.62 107.427 94.0962C107.757 93.5658 108.256 93.1578 108.809 92.9352C109.927 92.484 111.09 92.5866 112.126 92.7426C112.65 92.8344 113.169 92.9898 113.601 93.291C114.037 93.5862 114.338 94.041 114.481 94.5036C114.637 94.9524 114.708 95.472 114.507 95.916C114.31 96.3576 113.941 96.639 113.6 96.8706L113.545 96.8874C113.77 96.768 113.531 96.6654 113.573 96.6918L113.581 96.6936L113.606 96.6984L113.658 96.708L113.764 96.7266L113.974 96.7614C114.113 96.7836 114.251 96.8064 114.387 96.828C114.659 96.8706 114.923 96.9126 115.18 96.9534C115.693 97.0332 116.176 97.1082 116.626 97.179C117.52 97.3182 118.287 97.4376 118.922 97.536C119.528 97.6326 120.006 97.7088 120.355 97.7646C120.503 97.7898 120.625 97.8108 120.724 97.8276C120.807 97.8432 120.848 97.851 120.848 97.8552C120.847 97.8672 120.675 97.8564 120.347 97.8204C119.996 97.7778 119.516 97.719 118.906 97.6446C118.27 97.5594 117.5 97.4562 116.603 97.3356C116.151 97.2726 115.667 97.2048 115.153 97.1328C114.896 97.0956 114.631 97.0572 114.358 97.0182C114.222 96.9978 114.083 96.9774 113.944 96.9564L113.732 96.924L113.624 96.9066L113.57 96.897L113.541 96.8916L113.523 96.8874C113.556 96.912 113.303 96.804 113.545 96.6846L113.49 96.7014C113.815 96.4758 114.15 96.2052 114.31 95.829C114.476 95.4546 114.417 95.0046 114.265 94.578C114.125 94.1472 113.858 93.7554 113.465 93.4914C113.075 93.2238 112.59 93.0786 112.086 92.9946C111.076 92.8476 109.944 92.7654 108.919 93.1902C108.413 93.3972 107.969 93.7662 107.672 94.2462C107.378 94.7214 107.247 95.3214 107.429 95.859L107.557 96.2328L107.216 96.0318C105.86 95.2308 103.759 95.8308 102.998 97.3644C102.209 98.9028 103.316 101.048 105.053 101.494C105.24 101.548 105.432 101.562 105.61 101.578L106.157 101.628L105.675 101.874C104.603 102.42 104.02 103.672 104.089 104.822C104.141 105.994 104.938 107.008 105.914 107.535C106.898 108.088 108.073 108.15 109.077 107.803C110.087 107.464 110.933 106.784 111.502 105.974L111.778 105.582L111.753 106.06C111.73 106.49 111.968 106.895 112.304 107.158C112.641 107.423 113.069 107.565 113.48 107.552C114.321 107.516 114.974 106.823 115.251 106.109C115.553 105.378 115.505 104.588 115.309 103.901C115.111 103.208 114.784 102.598 114.449 102.053L114.368 101.921L114.52 101.908C116.494 101.732 118.069 101.593 119.177 101.494C119.701 101.453 120.114 101.421 120.419 101.397C120.698 101.378 120.845 101.372 120.846 101.381Z" fill="#263238"/>
<path d="M119.827 98.8068C119.827 98.8932 118.696 98.9628 117.302 98.9628C115.907 98.9628 114.777 98.8926 114.777 98.8068C114.777 98.7204 115.907 98.6508 117.302 98.6508C118.696 98.6508 119.827 98.721 119.827 98.8068Z" fill="#263238"/>
<path d="M120.283 96.4428C120.265 96.5274 119.455 96.426 118.474 96.2166C117.493 96.0072 116.713 95.769 116.731 95.6844C116.749 95.5998 117.558 95.7012 118.539 95.9106C119.52 96.12 120.301 96.3582 120.283 96.4428Z" fill="#263238"/>
<path d="M121.159 103.066C121.201 103.142 120.501 103.602 119.597 104.093C118.693 104.585 117.927 104.922 117.886 104.846C117.845 104.77 118.544 104.31 119.449 103.819C120.352 103.327 121.118 102.99 121.159 103.066Z" fill="#263238"/>
<path d="M142.47 111.115C143.869 111.732 145.094 110.516 146.159 110.278C146.906 110.111 148.636 110.104 149.087 109.531C149.912 108.484 150.297 107.732 149.942 106.496C149.735 105.779 149.012 105.112 148.453 104.579C147.529 103.699 145.043 103.736 143.825 104.268C143.285 104.504 142.805 104.667 142.358 105.032C141.512 105.722 140.891 106.663 140.677 107.734C140.447 108.886 140.633 110.305 142.47 111.115Z" fill="#FF9A6C"/>
<path d="M141.258 106.275C141.248 106.27 141.269 106.205 141.323 106.087C141.38 105.971 141.475 105.803 141.628 105.608C141.931 105.217 142.492 104.737 143.295 104.365C144.089 103.995 145.129 103.668 146.315 103.732C147.488 103.779 148.817 104.348 149.621 105.493C150.02 106.058 150.238 106.744 150.215 107.402C150.199 108.059 149.984 108.682 149.629 109.172C149.28 109.669 148.759 110 148.252 110.148C147.742 110.304 147.256 110.335 146.823 110.371C145.957 110.418 145.275 110.554 144.851 110.779C144.425 110.993 144.262 111.22 144.239 111.197C144.232 111.192 144.265 111.131 144.35 111.032C144.434 110.933 144.578 110.799 144.793 110.672C145.217 110.402 145.936 110.225 146.802 110.151C147.232 110.101 147.704 110.056 148.172 109.901C148.639 109.751 149.084 109.456 149.395 109.003C150.032 108.119 150.131 106.709 149.364 105.671C148.625 104.621 147.403 104.078 146.296 104.018C145.176 103.941 144.167 104.231 143.385 104.565C142.596 104.901 142.04 105.333 141.72 105.686C141.398 106.04 141.283 106.288 141.258 106.275Z" fill="#263238"/>
<path d="M127.393 81.279C135.252 81.2574 137.725 83.9316 141.377 83.9082C144.04 83.8908 146.358 82.131 148.94 81.4782C150.773 81.0144 152.791 81.0942 154.42 80.1324C155.536 79.473 156.344 78.3792 156.872 77.1954C157.399 76.0116 157.669 74.7312 157.912 73.458C158.041 72.7776 158.158 72.042 157.858 71.4174C157.555 70.7844 156.898 70.413 156.28 70.0812C154.573 69.165 152.849 68.2428 150.988 67.7064C149.126 67.17 147.09 67.0428 145.274 67.7166C143.054 68.5398 141.428 70.4316 139.979 72.3036C138.53 74.1756 137.089 76.161 135.024 77.3184C133.791 78.0096 132.402 78.3636 131.094 78.9012C130.836 79.0068 128.101 79.7922 126.636 79.9872C126.637 79.9854 126.295 81.282 127.393 81.279Z" fill="#FF9A6C"/>
<path d="M119.252 78.9006C124.577 79.7802 130.054 79.4436 134.35 76.1766C135.586 75.2364 136.739 74.1606 137.798 72.9864C139.711 70.8654 141.214 68.208 143.773 66.939C147.073 65.3034 151.009 66.4902 154.488 67.6962L154.341 67.563C156.152 68.3988 157.799 69.5862 159.165 71.04C158.24 79.2312 159.434 87.6564 162.652 95.2512C162.916 95.8746 163.405 96.3936 164.032 96.6498C166.015 97.4604 165.427 94.8078 166.913 94.314C168.052 93.9354 168.601 94.1802 170.859 94.1394C171.667 92.0094 172.189 86.1906 172.887 83.0484C174.77 81.0972 176.536 77.4582 176.634 74.601C176.733 71.7438 175.186 68.0856 175.186 68.0856C173.071 63.9696 171.844 61.866 168.549 60.6936L168.475 60.726C165.516 59.5386 161.869 59.5236 159.442 61.5786C158.837 57.1422 154.945 53.631 150.613 52.497C146.281 51.3636 139.335 52.0458 135.182 53.721C132.349 54.8634 129.598 57.0648 126.399 60.2412L126.4 60.2388C126.4 60.2406 126.398 60.2412 126.397 60.243C125.972 60.6648 125.54 61.1016 125.098 61.5582C125.061 61.596 125.028 61.6386 124.991 61.677C124.069 62.2524 122.932 62.5164 121.757 62.6358C119.867 62.8272 118.696 62.2206 117.428 60.8058C117.043 60.3756 116.559 59.8332 116.006 60.003C115.658 60.1104 115.457 60.4722 115.34 60.8172C114.712 62.655 115.503 64.755 116.879 66.126C117.546 66.7902 118.33 67.3062 119.17 67.731C119.17 67.731 117.894 69.2742 115.723 69.6036C114.558 69.78 113.498 70.4418 112.828 71.4114C112.502 71.8842 112.266 72.441 112.259 73.0674C112.222 76.6542 115.782 78.327 119.252 78.9006Z" fill="#263238"/>
<path d="M117.012 75.1512C117.009 75.1554 117.043 75.1842 117.112 75.2364C117.196 75.2976 117.298 75.372 117.423 75.4626C117.559 75.5646 117.732 75.6834 117.951 75.8004C118.166 75.9234 118.411 76.0728 118.709 76.1988C119.866 76.7472 121.721 77.292 124.039 77.154C126.335 77.0232 129.092 76.2078 131.552 74.3742C134.039 72.5838 136.22 69.9474 138.004 66.9282C138.908 65.4204 139.645 63.8736 140.458 62.4462C141.266 61.017 142.157 59.6958 143.239 58.6536C144.306 57.6048 145.546 56.8296 146.825 56.4732C147.462 56.283 148.104 56.2404 148.717 56.2542C149.331 56.286 149.912 56.4102 150.449 56.586C151.522 56.9454 152.389 57.5382 153.046 58.1472C153.706 58.7622 154.148 59.412 154.453 59.9688C155.02 61.113 155.052 61.848 155.097 61.8354C155.102 61.8348 155.099 61.791 155.087 61.7052C155.071 61.602 155.051 61.4766 155.028 61.3242C154.967 60.9906 154.823 60.5076 154.555 59.9184C154.261 59.343 153.823 58.6698 153.159 58.0296C152.498 57.3948 151.619 56.7744 150.517 56.3916C149.966 56.2044 149.366 56.07 148.729 56.0304C148.095 56.0088 147.421 56.0502 146.761 56.241C145.433 56.5998 144.15 57.3942 143.053 58.4616C141.94 59.5236 141.028 60.8676 140.212 62.3058C139.389 63.7434 138.652 65.286 137.755 66.7806C135.985 69.7764 133.835 72.3834 131.396 74.1576C128.981 75.9756 126.29 76.7922 124.027 76.9488C121.747 77.1108 119.914 76.6062 118.757 76.0956C117.589 75.5772 117.035 75.1158 117.012 75.1512Z" fill="#455A64"/>
<path d="M117.675 72.8304C117.666 72.8484 117.833 72.9462 118.143 73.1076C118.451 73.275 118.919 73.4748 119.511 73.68C120.103 73.8906 120.83 74.0742 121.649 74.2122C122.471 74.3358 123.386 74.4048 124.346 74.37C125.305 74.325 126.211 74.1804 127.02 73.9902C127.825 73.7844 128.535 73.5414 129.107 73.2834C129.68 73.0296 130.13 72.7914 130.423 72.5994C130.72 72.4122 130.877 72.3018 130.867 72.285C130.84 72.237 130.18 72.6402 129.029 73.0932C128.456 73.3242 127.753 73.5426 126.959 73.7292C126.163 73.902 125.275 74.0352 124.334 74.0796C123.395 74.1132 122.498 74.0538 121.69 73.9476C120.884 73.8264 120.165 73.6668 119.575 73.485C118.39 73.128 117.698 72.7812 117.675 72.8304Z" fill="#455A64"/>
<path d="M163.401 76.6668C163.369 76.6644 163.314 76.9458 163.276 77.466C163.239 77.9856 163.222 78.7452 163.297 79.6896C163.354 80.1702 163.351 80.6562 163.539 81.2628C163.627 81.5562 163.957 81.9204 164.384 81.8952C164.792 81.873 165.081 81.6468 165.335 81.438C166.286 80.5764 167.317 79.6416 168.406 78.654L167.961 78.3906C167.813 78.9762 167.659 79.5888 167.502 80.2122C167.083 81.9228 166.684 83.55 166.318 85.0398L166.12 85.8486L166.729 85.2858C168.346 83.7906 169.462 82.278 170.149 81.1656C170.837 80.049 171.125 79.341 171.082 79.3188C170.957 79.2282 169.613 82.0308 166.393 84.915L166.803 85.161C167.182 83.6742 167.596 82.0512 168.031 80.3448C168.186 79.7208 168.338 79.1076 168.484 78.5214L168.704 77.6364L168.04 78.2574C166.969 79.2582 165.955 80.2056 165.021 81.0792C164.806 81.2754 164.565 81.4344 164.368 81.444C164.175 81.4566 164.022 81.3282 163.931 81.1056C163.769 80.6562 163.724 80.0964 163.652 79.6524C163.418 77.8074 163.482 76.6692 163.401 76.6668Z" fill="#455A64"/>
<path d="M163.747 69.6762C163.776 69.684 163.713 69.8478 163.781 70.1292C163.85 70.4118 164.065 70.782 164.37 71.2272C164.519 71.4528 164.69 71.6988 164.832 72.0036C164.963 72.3192 165.043 72.6588 165.067 73.0368C165.087 73.407 165.044 73.8324 164.795 74.2026C164.552 74.577 164.056 74.7918 163.598 74.715C163.14 74.6574 162.739 74.3826 162.496 74.0412C162.245 73.7004 162.118 73.3146 162.05 72.9498C161.917 72.2148 162.016 71.5374 162.19 71.0118C162.365 70.4826 162.612 70.1016 162.802 69.861C162.997 69.6222 163.132 69.5166 163.145 69.5292C163.195 69.5634 162.691 70.0524 162.401 71.0754C162.264 71.5812 162.195 72.219 162.333 72.8946C162.454 73.5492 162.874 74.3082 163.64 74.4048C164.003 74.4618 164.354 74.3064 164.545 74.0268C164.738 73.7484 164.793 73.3842 164.78 73.0488C164.768 72.7128 164.698 72.3798 164.594 72.105C164.477 71.8278 164.321 71.577 164.184 71.3448C163.902 70.8846 163.699 70.47 163.662 70.1508C163.626 69.828 163.738 69.6666 163.747 69.6762Z" fill="white"/>
<path d="M165.758 67.6026C165.784 67.611 165.752 67.7166 165.801 67.8906C165.851 68.0664 165.992 68.2974 166.193 68.5812C166.291 68.7258 166.404 68.8836 166.5 69.0852C166.589 69.2964 166.643 69.5166 166.66 69.7674C166.674 70.0122 166.648 70.2972 166.478 70.5528C166.312 70.8108 165.967 70.9602 165.654 70.9074C165.343 70.8684 165.07 70.68 164.907 70.4502C164.74 70.2204 164.657 69.9642 164.613 69.7236C164.528 69.2394 164.598 68.7948 164.716 68.4528C164.965 67.7592 165.352 67.4814 165.369 67.5084C165.412 67.5408 165.101 67.8648 164.927 68.5164C164.844 68.8386 164.806 69.2436 164.895 69.6684C164.975 70.083 165.236 70.5408 165.695 70.5972C165.913 70.6302 166.113 70.5408 166.226 70.3776C166.342 70.215 166.379 69.9906 166.372 69.78C166.366 69.5706 166.323 69.357 166.261 69.1872C166.19 69.0138 166.092 68.8512 166.006 68.7C165.828 68.4006 165.699 68.1252 165.681 67.9128C165.664 67.6968 165.745 67.5936 165.758 67.6026Z" fill="white"/>
<path d="M132.55 97.0302C131.592 96.4698 130.565 96.1278 129.457 96.0732C128.349 96.0186 127.121 96.6714 126.922 97.7628C126.787 98.5044 127.163 99.2742 127.739 99.7608C128.315 100.247 129.062 100.486 129.806 100.609C130.559 100.732 131.351 100.744 132.064 100.472C132.777 100.2 133.398 99.606 133.55 98.8584C133.703 98.1108 133.282 97.245 132.55 97.0302Z" fill="#FF9A6C"/>
<path d="M147.175 97.9476C148.787 97.3872 150.515 97.0452 152.381 96.9906C154.246 96.936 156.314 97.5888 156.648 98.6802C156.875 99.4218 156.242 100.192 155.272 100.678C154.303 101.165 153.046 101.404 151.793 101.526C150.526 101.65 149.192 101.661 147.991 101.389C146.791 101.117 145.745 100.523 145.49 99.7758C145.235 99.0276 145.943 98.1624 147.175 97.9476Z" fill="#FF9A6C"/>
<path d="M144.618 85.8006C144.619 85.836 144.356 85.8762 143.98 85.7076C143.612 85.5492 143.138 85.1316 142.999 84.4914C142.868 83.8488 143.132 83.2758 143.404 82.9818C143.681 82.6758 143.936 82.6062 143.95 82.6386C143.977 82.6806 143.777 82.815 143.579 83.1168C143.38 83.409 143.197 83.9052 143.304 84.4266C143.417 84.9468 143.785 85.326 144.085 85.5132C144.389 85.7088 144.625 85.7514 144.618 85.8006Z" fill="#263238"/>
<path d="M140.066 83.712C140.104 83.7072 140.17 83.8776 140.17 84.168C140.17 84.4566 140.084 84.8622 139.858 85.248C139.631 85.6332 139.319 85.9062 139.067 86.0466C138.813 86.1888 138.632 86.2146 138.618 86.1786C138.578 86.0964 139.191 85.7874 139.589 85.0902C140.004 84.4032 139.975 83.7174 140.066 83.712Z" fill="#263238"/>
</svg>
