<svg width="361" height="243" viewBox="0 0 361 243" fill="none" xmlns="http://www.w3.org/2000/svg">
<path d="M259.945 81.7899H256.6V202.077H259.945V81.7899Z" fill="#666666"/>
<path d="M280.172 92.6418H237.664L251.292 52H266.692L280.172 92.6418Z" fill="#E8AD3A"/>
<path d="M253.776 56.8571L246.692 89.1362C246.692 89.1362 245.405 65.2707 253.776 56.8571Z" fill="#D39933"/>
<path d="M263.819 57.0938L272.757 88.9C272.757 88.9 272.662 64.999 263.819 57.0938Z" fill="#D39933"/>
<path d="M258.245 53.8555L258.992 86.9089C258.992 86.9089 264.841 63.749 258.245 53.8555Z" fill="#D39933"/>
<path d="M271.047 201.733L269.038 218.888H264.267L263.373 201.585L271.047 201.733Z" fill="#7F4C28"/>
<path d="M63.5004 201.733L65.5089 218.888H70.2809L71.1747 201.585L63.5004 201.733Z" fill="#7F4C28"/>
<path d="M270.115 149.595L245.717 148.912L246.677 178.019L270.115 185.478V149.595Z" fill="#324C6B"/>
<path d="M62.6431 149.318L87.0414 148.635L86.0811 177.742L62.6431 185.201V149.318Z" fill="#324C6B"/>
<path d="M252.389 178.256L244.494 142.953C241.542 129.754 229.929 120.38 216.527 120.38H116.202C102.653 120.38 90.9542 129.956 88.1509 143.34L80.838 178.256H252.389V178.256Z" fill="#485A8C"/>
<path d="M249.668 176.97H172.715H160.454H83.5017C75.6401 176.97 69.2667 182.786 69.2667 189.96V207.323H160.454H172.715H263.903V189.96C263.903 182.786 257.53 176.97 249.668 176.97Z" fill="#608EA0"/>
<path d="M76.0179 207.6V158.17C76.0179 153.281 72.1114 149.318 67.2923 149.318H63.7256C58.9065 149.318 55 153.281 55 158.17V207.6H76.0179Z" fill="#485A8C"/>
<path d="M256.74 207.6V158.405C256.74 153.539 260.647 149.595 265.466 149.595H269.033C273.852 149.595 277.758 153.539 277.758 158.405V207.6H256.74Z" fill="#485A8C"/>
<path d="M65.5089 165.435C67.3902 165.435 68.9153 163.835 68.9153 161.862C68.9153 159.888 67.3902 158.289 65.5089 158.289C63.6276 158.289 62.1026 159.888 62.1026 161.862C62.1026 163.835 63.6276 165.435 65.5089 165.435Z" fill="#324C6B"/>
<path d="M66.0654 169.502V198.224C66.0654 198.224 60.2932 183.863 66.0654 169.502Z" fill="#324C6B"/>
<path d="M256.74 189.317H76.0179V207.601H256.74V189.317Z" fill="#485A8C"/>
<path d="M131.49 125.887V162.219C131.49 162.219 124.189 144.053 131.49 125.887Z" fill="#324C6B"/>
<path d="M267.766 164.085C269.647 164.085 271.173 162.485 271.173 160.512C271.173 158.539 269.647 156.939 267.766 156.939C265.885 156.939 264.36 158.539 264.36 160.512C264.36 162.485 265.885 164.085 267.766 164.085Z" fill="#324C6B"/>
<path d="M199.322 127.038V163.37C199.322 163.37 206.623 145.205 199.322 127.038Z" fill="#324C6B"/>
<path d="M267.21 168.152V196.874C267.21 196.874 272.982 182.513 267.21 168.152Z" fill="#324C6B"/>
<path d="M79.072 196.874H255.111C255.111 196.874 194.915 204.67 79.072 196.874Z" fill="#324C6B"/>
<path d="M238.761 149.59C238.761 149.59 231.789 167.955 232.092 171.016C232.395 174.076 234.517 177.802 235.931 177.803L259.779 177.983C259.779 177.983 262.53 177.443 263.933 172.852C265.336 168.261 269.884 150.814 269.884 150.304C269.884 149.794 270.49 146.855 267.761 144.6C265.033 142.346 247.047 142.904 243.611 143.979C241.095 144.766 240.113 145.941 238.761 149.59Z" fill="#DE8B2E"/>
<path d="M265.023 146.018L256.286 175.693C256.286 175.693 268.62 159.334 265.023 146.018Z" fill="#BC7228"/>
<path d="M249.304 155.006L258.918 146.43C258.918 146.43 250.198 149.816 249.304 155.006Z" fill="#BC7228"/>
<path d="M243.194 147.107L245.355 154.555C245.355 154.555 241.481 150.869 243.194 147.107Z" fill="#BC7228"/>
<path d="M246.696 160.856L251.012 171.782C251.012 171.782 251.613 163.395 246.696 160.856Z" fill="#BC7228"/>
<path d="M233.955 169.751L243.194 161.325C243.194 161.325 235.073 163.85 233.955 169.751Z" fill="#BC7228"/>
<path d="M316.025 172.692H296.113H295.728H275.815C274.126 172.692 272.757 173.604 272.757 174.73C272.757 175.856 274.126 176.768 275.815 176.768H294.737V215.591C291.076 215.98 286.407 216.711 286.407 216.711V218.995H309.403V216.711C309.403 216.711 304.936 215.996 301.386 215.605V176.768H316.025C317.714 176.768 319.084 175.856 319.084 174.731C319.083 173.605 317.714 172.692 316.025 172.692Z" fill="#A38260"/>
<path d="M295.441 176.819H300.897C300.897 176.819 297.964 179.366 295.441 176.819Z" fill="#8C6D51"/>
<path d="M282.691 161.685V164.543C282.691 166.466 284.105 168.05 285.938 168.308V172.258H284.539V172.693H288.177V172.258H286.778V168.332C288.711 168.17 290.23 166.537 290.23 164.543V161.685H282.691Z" fill="#787C91"/>
<path d="M301.63 156.68H300.213V150.993H297.456V156.68H296.409C294.773 156.68 293.447 158.019 293.447 159.671V172.692H304.593V159.671C304.593 158.019 303.266 156.68 301.63 156.68Z" fill="#91B0DC"/>
<path d="M304.593 160.767H293.446V168.349H304.593V160.767Z" fill="#787C91"/>
<path d="M300.799 149.595H296.728V151.684H300.799V149.595Z" fill="#A38260"/>
<path d="M113.594 120.526C113.594 120.526 108.926 116.532 110.604 110.713C112.282 104.895 120.086 100.402 129.423 102.243C138.76 104.085 146.2 114.062 146.93 120.526L113.594 120.526Z" fill="#E8AD3A"/>
<path d="M144.81 107.458C144.81 107.458 147.044 105.202 150.654 105.202L149.221 111.16L144.81 107.458Z" fill="#9B6F17"/>
<path d="M139.654 107.675L137.119 103.814C137.119 103.814 133.066 107.111 134.498 111.16C135.93 115.209 139.654 107.675 139.654 107.675Z" fill="#9B6F17"/>
<path d="M135.414 108.904C135.414 108.904 130.373 112.664 130.888 116.713C131.404 120.763 136.961 121.497 144.81 121.101C152.659 120.705 151.513 115.383 151.227 113.821C150.94 112.259 145.326 101.153 135.414 108.904Z" fill="#E8AD3A"/>
<path d="M136.114 111.522C136.114 111.522 136.646 113.253 138.902 113.371C141.157 113.488 141.123 111.7 141.123 111.7C141.123 111.7 138.783 114.186 136.114 111.522Z" fill="#9B6F17"/>
<path d="M139.406 114.574C139.406 114.574 140.578 113.591 142.645 113.912C144.71 114.233 145.327 115.457 145.466 115.958C145.605 116.46 144.731 118.405 142.148 118.004C139.565 117.603 138.075 115.657 139.406 114.574Z" fill="#FFD068"/>
<path d="M143.562 111.834C143.562 111.834 144.094 113.566 146.35 113.683C148.605 113.8 148.571 112.012 148.571 112.012C148.571 112.012 146.231 114.499 143.562 111.834Z" fill="#9B6F17"/>
<path d="M141.671 114.293C141.671 114.293 142.803 114.193 143.28 114.534C143.756 114.875 142.366 115.838 142.366 115.838C142.366 115.838 140.816 114.674 141.671 114.293Z" fill="#9B6F17"/>
<path d="M133.521 110.648C133.521 110.648 126.821 116.824 134.923 120.526C134.923 120.526 129.56 117.322 133.521 110.648Z" fill="#CC9533"/>
<path d="M122.53 119.109C127.806 118.353 129.241 117.563 129.934 119.662C130.627 121.761 117.862 124.741 113.595 120.526C109.328 116.311 110.357 111.808 110.357 111.808C110.357 111.808 112.646 120.526 122.53 119.109Z" fill="#9B6F17"/>
<path d="M170.506 157.365C170.506 157.365 169.142 172.688 173.234 177.791L170.506 157.365Z" fill="#47436D"/>
<path d="M108.581 176.046C108.581 176.046 106.141 179.142 102.574 183.234C102.574 183.234 102.574 183.239 102.569 183.244C102.266 183.589 101.953 183.944 101.635 184.303C100.418 185.688 98.5212 185.684 96.4467 184.95C93.8041 184.012 90.868 181.893 88.6683 179.954C87.4313 178.86 86.4253 177.825 85.8333 177.091C85.8333 177.086 85.8284 177.086 85.8236 177.081C84.7214 175.91 84.4278 173.942 84.4278 173.942C83.9079 173.5 83.6673 171.755 85.6311 172.809C86.4397 173.247 88.6057 173.879 90.8632 174.472C90.8632 174.472 90.8632 174.472 90.868 174.476C94.0881 175.322 97.5056 176.09 97.5056 176.09C97.881 176.177 98.2565 176.323 98.603 176.488L101.635 171.512L108.581 176.046Z" fill="#C45B51"/>
<path d="M88.6683 179.954C87.4313 178.86 86.4253 177.825 85.8333 177.091C85.8333 177.086 85.8284 177.086 85.8236 177.081C84.7214 175.91 84.4278 173.942 84.4278 173.942C83.9079 173.5 83.6673 171.755 85.6311 172.809C86.4397 173.247 88.6057 173.879 90.8632 174.472C90.8632 174.472 90.8632 174.472 90.868 174.476C90.9161 174.661 91.8595 178.389 88.6683 179.954Z" fill="#A0433F"/>
<path d="M99.9984 174.198C99.9984 174.198 99.79 174.996 100.933 175.381C102.076 175.766 102.598 176.15 102.798 176.596C102.999 177.041 103.741 177.669 104.483 177.77C105.225 177.872 106.107 178.56 106.027 179.178L106.61 178.475C106.61 178.475 106.548 177.507 105.385 177.082C104.222 176.657 103.32 176.191 103.099 175.766C102.879 175.34 101.936 174.693 101.234 174.672C100.532 174.652 100.38 173.572 100.38 173.572L99.9984 174.198Z" fill="#A0433F"/>
<path d="M100.282 181.557C100.282 181.557 101.064 181.527 101.485 180.646C101.906 179.766 101.816 179.401 101.816 179.401C101.816 179.401 103.14 181.861 100.282 181.557Z" fill="#B25454"/>
<path d="M102.574 183.234C102.574 183.234 102.574 183.239 102.569 183.244C102.266 183.589 101.953 183.944 101.635 184.303C100.418 185.688 98.5212 185.684 96.4467 184.95C96.4467 184.95 97.6355 182.772 99.4069 182.68C101.183 182.593 102.574 183.234 102.574 183.234Z" fill="#A0433F"/>
<path d="M85.8116 174.176L88.3386 174.571C88.3386 174.571 87.2859 173.447 85.8116 174.176Z" fill="#843131"/>
<path d="M228.737 164.975C228.737 164.975 217.322 184.722 203.361 182.126C189.399 179.531 186.941 140.488 186.941 140.488H193.311C193.311 140.488 199.122 163.169 204.151 164.974C209.18 166.78 215.662 159.681 215.662 159.681C215.662 159.681 225.496 156.06 228.737 164.975Z" fill="#E2B288"/>
<path d="M193.302 140.59C193.302 140.59 194.095 138.925 194.614 136.211C195.132 133.497 192.744 131.052 192.443 130.358C192.142 129.665 190.94 130.011 191.842 133.003C192.743 135.994 190.554 133.957 189.094 131.832C187.634 129.708 188.922 127.323 187.033 125.025C185.143 122.728 185.358 126.933 185.658 128.364C185.658 128.364 184.628 128.927 184.413 130.271C184.199 131.615 184.413 132.471 184.413 132.471C184.413 132.471 183.726 133.219 183.812 134.39C183.898 135.56 184.199 135.778 184.199 135.778C184.199 135.778 183.769 136.471 184.07 137.945C184.37 139.419 187.419 143.798 187.419 143.798L193.302 140.59Z" fill="#E2B288"/>
<path d="M228.739 143.051L224.254 148.209C224.254 148.209 232.28 153.156 236.789 151.905L244.7 142.581C244.7 142.581 232.044 145.678 228.739 143.051Z" fill="#E2B288"/>
<path d="M247.008 137.667C245.975 136.214 244.933 136.088 244.32 136.181C245.67 131.288 245.207 124.78 235.609 121.161C235.609 121.161 232.174 122.592 231.052 126.152C229.929 129.711 225.446 129.803 225.446 129.803C225.446 129.803 224.018 136.261 222.186 139.786C222.186 139.786 225.23 144.172 232.349 145.008C239.467 145.843 241.313 142.564 241.313 142.564C245.516 144.51 248.613 139.923 247.008 137.667Z" fill="#F0CBA5"/>
<path d="M234.292 118.408C234.292 118.408 234.084 122.676 238.766 125.922C243.448 129.169 243.501 128.975 243.501 128.975C243.501 128.975 239.865 132.214 240.707 135.191C240.707 135.191 239.078 137.403 240.193 138.459C240.193 138.459 242.761 136.162 244.728 136.161C246.695 136.161 248.589 140.125 244.7 142.581C244.7 142.581 242.142 143.08 241.277 142.445C241.277 142.445 239.96 143.164 239.843 144.244C239.822 144.437 240.55 146.75 241.163 146.75C241.163 146.75 246.413 145 249.265 142.833C252.116 140.667 256.631 135.55 254.306 131.207C254.306 131.207 253.846 123.927 244.941 119.391C236.036 114.855 234.46 116.416 234.292 118.408Z" fill="#3E3E44"/>
<path d="M174.899 154.889L78.6397 142.288L75.6598 151.127C75.6598 151.127 141.602 174.811 159.252 175.542C176.901 176.272 174.899 154.889 174.899 154.889Z" fill="#47436D"/>
<path d="M224.254 148.209C224.254 148.209 233.664 151.869 237.592 150.958C237.592 150.958 237.518 163.551 229.133 172.704C220.748 181.857 210.633 182.478 193.424 182.288C176.751 182.105 175.997 181.185 175.997 181.185L173.758 154.888L202.293 152.443C202.293 152.443 216.622 148.442 224.254 148.209Z" fill="#D77062"/>
<path d="M194.315 137.267C194.315 137.267 198.922 153.725 213.953 153.958C228.984 154.193 241.312 142.564 241.312 142.564" stroke="white" stroke-miterlimit="10" stroke-linecap="round"/>
<path d="M174.217 154.849C174.217 154.849 157.922 139.509 142.127 134.915C126.332 130.322 99.9989 171.138 99.9989 171.138L109.684 176.763L138.964 154.249C138.964 154.249 148.731 178.594 175.997 181.185L174.217 154.849Z" fill="#504977"/>
<path d="M231.052 163.163C231.052 163.163 219.637 182.91 205.675 180.315C191.714 177.719 189.255 138.677 189.255 138.677H195.625C195.625 138.677 201.436 161.357 206.465 163.163C211.494 164.968 217.977 157.869 217.977 157.869C217.977 157.869 227.81 154.249 231.052 163.163Z" fill="#F0CBA5"/>
<path d="M210.6 160.305L223.214 174.222C223.214 174.222 233.846 164.952 232.728 160.729C231.61 156.506 225.575 148.419 210.6 160.305Z" fill="#C45B51"/>
<path d="M193.703 134.556C193.207 134.753 192.646 134.506 192.451 134.006L185.519 116.21C185.324 115.709 185.568 115.144 186.064 114.947C186.56 114.749 187.121 114.996 187.316 115.497L194.248 133.292C194.443 133.793 194.199 134.359 193.703 134.556Z" fill="#666666"/>
<path d="M195.616 138.779C195.616 138.779 196.409 137.114 196.928 134.4C197.446 131.686 195.058 129.24 194.757 128.547C194.457 127.853 193.254 128.2 194.156 131.192C195.057 134.183 192.868 132.146 191.408 130.021C189.948 127.897 191.236 125.512 189.347 123.214C187.458 120.916 187.672 125.122 187.973 126.552C187.973 126.552 186.942 127.116 186.727 128.46C186.513 129.804 186.727 130.66 186.727 130.66C186.727 130.66 186.041 131.408 186.126 132.579C186.212 133.75 186.513 133.966 186.513 133.966C186.513 133.966 186.083 134.66 186.384 136.134C186.684 137.608 189.733 141.987 189.733 141.987L195.616 138.779Z" fill="#F0CBA5"/>
<path d="M242.99 138.943C242.99 138.943 242.021 139.826 242.363 140.305C242.705 140.785 241.11 142.108 241.11 142.108C241.11 142.108 241.371 142.549 241.715 142.664C241.715 142.664 243.789 141.207 244.016 139.922C244.056 139.697 244.06 139.514 244.039 139.365C243.97 138.87 243.386 138.644 242.99 138.943Z" fill="white"/>
<path d="M232.448 126.885C232.448 126.885 233.461 126.518 234.813 127.59C236.164 128.663 235.941 130.017 235.941 130.017C235.941 130.017 234.348 127.337 232.448 126.885Z" fill="#666666"/>
<path d="M232.483 129.902C231.972 130.606 231.372 131.039 231.142 130.869C230.911 130.699 231.138 129.99 231.648 129.286C232.158 128.581 232.758 128.148 232.989 128.319C233.219 128.489 232.992 129.198 232.483 129.902Z" fill="#666666"/>
<path d="M224.905 134.991C224.905 134.991 227.475 136.797 229.301 136.571C229.301 136.571 225.687 138.452 224.905 134.991Z" fill="#C6826D"/>
<path d="M139.457 146.896V152.889C139.457 152.889 142.661 149.83 139.457 146.896Z" fill="#47436D"/>
<path d="M206.939 164.012L207.74 169.727C207.74 169.727 209.942 166.854 206.939 164.012Z" fill="#E2B288"/>
<path d="M78.3293 143.285L77.0104 151.532C77.0104 151.532 73.2223 150.521 68.0769 148.869C68.0769 148.869 68.072 148.869 68.0672 148.869C67.6292 148.723 67.1816 148.577 66.7291 148.432C64.9819 147.858 64.2262 146.104 64.0577 143.892C63.8893 141.623 64.3369 138.867 64.9723 136.408C65.1263 135.815 65.2899 135.242 65.4584 134.692C65.9542 133.108 66.4885 131.762 66.9168 130.921V130.916C66.9265 130.824 66.9313 130.736 66.9409 130.649C67.0998 128.442 68.9866 127.694 69.2272 128.379C69.3668 128.788 69.4487 129.507 69.492 130.027C69.7326 130.148 69.9829 130.309 70.1081 130.508C70.3873 130.95 71.0804 132.369 71.1766 132.612C71.2344 132.758 71.22 133.468 71.2007 134.002C71.2489 134.177 71.2874 134.352 71.3162 134.517C71.3162 134.517 71.3162 134.517 71.3114 134.522C71.4125 135.154 71.5184 135.791 71.6243 136.408C71.6339 136.457 71.6435 136.51 71.6484 136.559C72.0912 139.12 72.5148 141.312 72.5148 141.312C72.587 141.691 72.6062 142.099 72.5966 142.483L78.3293 143.285Z" fill="#C45B51"/>
<path d="M75.2348 142.854C75.2348 142.854 74.4271 142.982 74.5378 144.194C74.6485 145.405 74.5094 146.042 74.1859 146.406C73.8625 146.771 73.5915 147.709 73.798 148.436C74.0045 149.163 73.7349 150.256 73.1424 150.43L74.0136 150.686C74.0136 150.686 74.867 150.24 74.7852 148.994C74.7034 147.747 74.7626 146.726 75.0596 146.351C75.3566 145.976 75.5655 144.844 75.3012 144.187C75.0374 143.53 75.9548 142.955 75.9548 142.955L75.2348 142.854Z" fill="#A0433F"/>
<path d="M68.6752 146.074C68.6752 146.074 69.0169 146.785 69.9853 146.82C70.9533 146.855 71.2479 146.625 71.2479 146.625C71.2479 146.625 69.5483 148.838 68.6752 146.074Z" fill="#B25454"/>
<path d="M68.0759 148.868C68.0759 148.868 68.0716 148.87 68.0653 148.867C67.6307 148.726 67.183 148.579 66.7291 148.43C64.9833 147.861 64.2252 146.106 64.0568 143.892C64.0568 143.892 66.5092 144.116 67.3048 145.717C68.0985 147.324 68.0759 148.868 68.0759 148.868Z" fill="#A0433F"/>
<path d="M71.6484 136.559C68.3103 134.577 66.3378 135.833 64.9723 136.408C65.1263 135.815 65.2899 135.242 65.4584 134.692C65.9542 133.108 66.4885 131.762 66.9169 130.921V130.916C66.9265 130.824 66.9313 130.736 66.9409 130.649C67.0998 128.442 68.9866 127.694 69.2273 128.379C69.3668 128.788 69.4487 129.507 69.492 130.027C69.7327 130.148 69.9829 130.309 70.1081 130.508C70.3873 130.95 71.0804 132.369 71.1767 132.612C71.2344 132.758 71.22 133.468 71.2007 134.002C71.2489 134.177 71.2874 134.352 71.3162 134.517C71.3162 134.517 71.3162 134.517 71.3114 134.522C71.4125 135.154 71.5184 135.791 71.6243 136.408C71.6339 136.457 71.6435 136.51 71.6484 136.559Z" fill="#A0433F"/>
<path d="M69.4463 130.568V132.957C69.4463 132.957 70.2284 131.54 69.4463 130.568Z" fill="#843131"/>
<path d="M107.411 169.529L136.923 148.209C136.923 148.209 117.861 164.576 108.284 169.65C107.561 170.033 107.607 169.65 107.411 169.529Z" fill="#5D5984"/>
<path d="M137.997 147.497C137.997 147.497 138.618 145.999 139.821 146.161C141.024 146.322 141.466 147.173 141.466 147.173L172.111 169.043C172.111 169.043 145.758 148.563 141.988 146.896C141.988 146.896 139.303 143.811 137.997 147.497Z" fill="#5D5984"/>
<path d="M104.403 166.491L113.789 172.809C113.789 172.809 106.208 170.784 104.403 166.491Z" fill="#5D5984"/>
<path d="M101.234 170.947L104.203 167.342C104.203 167.342 102.839 171.068 101.234 170.947Z" fill="#5D5984"/>
<path d="M105.085 172.648L106.971 170.785C106.971 170.785 106.77 172.526 105.085 172.648Z" fill="#5D5984"/>
<path d="M108.582 174.429L111.302 172.647C111.302 172.647 111.036 174.915 108.582 174.429Z" fill="#5D5984"/>
<path d="M83.3048 144.053L81.5398 152.114C81.5398 152.114 80.8307 144.884 83.3048 144.053Z" fill="#3A3859"/>
<path d="M79.2236 142.854L82.7734 143.619C82.7734 143.619 80.6373 144.336 79.2236 142.854Z" fill="#3A3859"/>
<path d="M78.3293 146.769L81.1788 147.464C81.1788 147.464 79.3906 148.309 78.3293 146.769Z" fill="#3A3859"/>
<path d="M77.9899 150.301L80.9983 151.061C80.9983 151.061 78.9526 151.516 77.9899 150.301Z" fill="#3A3859"/>
</svg>
